<svg width="49" height="49" viewBox="0 0 49 49" fill="none" xmlns="http://www.w3.org/2000/svg">
<path d="M18.2481 9.40492C20.1711 8.60748 22.2813 8.16634 24.4998 8.16634C26.7182 8.16634 28.8285 8.60748 30.7513 9.40492C31.793 9.83685 32.9876 9.34263 33.4194 8.30105C33.8514 7.25947 33.3571 6.06496 32.3155 5.63304C29.9055 4.6336 27.2644 4.08301 24.4998 4.08301C21.7351 4.08301 19.0941 4.6336 16.684 5.63304C15.6424 6.06496 15.1482 7.25947 15.5801 8.30105C16.012 9.34263 17.2065 9.83685 18.2481 9.40492Z" fill="#C3C3C3"/>
<path d="M9.40541 18.2481C9.83734 17.2065 9.34312 16.012 8.30154 15.5801C7.25996 15.1482 6.06544 15.6424 5.63353 16.684C4.63409 19.0941 4.0835 21.7351 4.0835 24.4998C4.0835 27.2644 4.63409 29.9055 5.63353 32.3155C6.06544 33.3571 7.25996 33.8514 8.30154 33.4194C9.34312 32.9876 9.83734 31.793 9.40541 30.7513C8.60797 28.8285 8.16683 26.7182 8.16683 24.4998C8.16683 22.2813 8.60797 20.1711 9.40541 18.2481Z" fill="#C3C3C3"/>
<path d="M43.3666 16.684C42.9346 15.6424 41.7403 15.1482 40.6986 15.5801C39.6571 16.012 39.1629 17.2065 39.5947 18.2481C40.3921 20.1711 40.8333 22.2813 40.8333 24.4998C40.8333 26.7182 40.3921 28.8285 39.5947 30.7513C39.1629 31.793 39.6571 32.9876 40.6986 33.4194C41.7403 33.8514 42.9346 33.3571 43.3666 32.3155C44.366 29.9055 44.9167 27.2644 44.9167 24.4998C44.9167 21.7351 44.366 19.0941 43.3666 16.684Z" fill="#C3C3C3"/>
<path d="M18.2481 39.5947C17.2065 39.1629 16.012 39.6571 15.5801 40.6986C15.1482 41.7403 15.6424 42.9346 16.684 43.3666C19.0941 44.366 21.7351 44.9167 24.4998 44.9167C27.2644 44.9167 29.9055 44.366 32.3155 43.3666C33.3571 42.9346 33.8514 41.7403 33.4194 40.6986C32.9876 39.6571 31.793 39.1629 30.7513 39.5947C28.8285 40.3921 26.7182 40.8333 24.4998 40.8333C22.2813 40.8333 20.1711 40.3921 18.2481 39.5947Z" fill="#C3C3C3"/>
<path fill-rule="evenodd" clip-rule="evenodd" d="M24.5002 16.333C19.9898 16.333 16.3335 19.9893 16.3335 24.4997C16.3335 29.0099 19.9898 32.6663 24.5002 32.6663C29.0104 32.6663 32.6668 29.0099 32.6668 24.4997C32.6668 19.9893 29.0104 16.333 24.5002 16.333ZM20.4168 24.4997C20.4168 22.2444 22.2449 20.4163 24.5002 20.4163C26.7554 20.4163 28.5835 22.2444 28.5835 24.4997C28.5835 26.7549 26.7554 28.583 24.5002 28.583C22.2449 28.583 20.4168 26.7549 20.4168 24.4997Z" fill="#C3C3C3"/>
</svg>
