<svg width="52" height="52" viewBox="0 0 52 52" fill="none" xmlns="http://www.w3.org/2000/svg">
<path d="M22.2948 17.03L11.1148 28.275L8.77481 36.595C7.47481 41.21 6.49981 45.11 6.69481 45.305C6.88981 45.435 10.8548 44.525 15.4698 43.225L23.8548 40.82L35.1648 29.51C41.3398 23.335 46.2148 18.005 45.9548 17.745C45.6948 17.485 40.8848 21.905 35.2298 27.495L25.0248 37.7L23.0748 35.425C20.7998 32.695 19.9548 31.915 16.7698 29.055L14.2998 26.91L24.3748 16.9C33.7998 7.54003 35.2298 5.85003 33.9298 5.85003C33.6698 5.85003 28.4048 10.92 22.2948 17.03ZM15.2748 30.68C15.2098 32.175 15.4048 32.37 16.8998 32.045C18.9798 31.655 20.4748 33.215 19.8898 35.295C19.5648 36.595 19.7598 36.79 21.3198 36.725C22.6198 36.725 23.1398 37.05 23.2698 38.155C23.4648 39.325 22.9448 39.715 19.6948 40.625C17.6148 41.21 15.2098 41.925 14.2998 42.185C12.9998 42.64 12.2848 42.38 10.9848 41.145C9.29481 39.585 9.29481 39.52 10.1398 36.53C10.6598 34.84 11.3748 32.37 11.7648 31.005C12.2848 28.99 12.6748 28.535 13.8448 28.73C14.9498 28.86 15.2748 29.38 15.2748 30.68Z" fill="#C3C3C3"/>
<path d="M37.6997 9.1C37.6997 9.425 38.0247 9.75 38.3497 9.75C38.7397 9.75 38.9997 9.425 38.9997 9.1C38.9997 8.71 38.7397 8.45 38.3497 8.45C38.0247 8.45 37.6997 8.71 37.6997 9.1Z" fill="#C3C3C3"/>
<path d="M35.75 11.0502C35.75 11.3752 36.075 11.7002 36.4 11.7002C36.79 11.7002 37.05 11.3752 37.05 11.0502C37.05 10.6602 36.79 10.4002 36.4 10.4002C36.075 10.4002 35.75 10.6602 35.75 11.0502Z" fill="#C3C3C3"/>
<path d="M33.7998 13.0004C33.7998 13.3254 34.1248 13.6504 34.4498 13.6504C34.8398 13.6504 35.0998 13.3254 35.0998 13.0004C35.0998 12.6104 34.8398 12.3504 34.4498 12.3504C34.1248 12.3504 33.7998 12.6104 33.7998 13.0004Z" fill="#C3C3C3"/>
<path d="M42.25 13.6498C42.25 13.9748 42.575 14.2998 42.9 14.2998C43.29 14.2998 43.55 13.9748 43.55 13.6498C43.55 13.2598 43.29 12.9998 42.9 12.9998C42.575 12.9998 42.25 13.2598 42.25 13.6498Z" fill="#C3C3C3"/>
<path d="M31.8496 14.9496C31.8496 15.2746 32.1746 15.5996 32.4996 15.5996C32.8896 15.5996 33.1496 15.2746 33.1496 14.9496C33.1496 14.5596 32.8896 14.2996 32.4996 14.2996C32.1746 14.2996 31.8496 14.5596 31.8496 14.9496Z" fill="#C3C3C3"/>
<path d="M40.2998 15.6C40.2998 15.925 40.6248 16.25 40.9498 16.25C41.3398 16.25 41.5998 15.925 41.5998 15.6C41.5998 15.21 41.3398 14.95 40.9498 14.95C40.6248 14.95 40.2998 15.21 40.2998 15.6Z" fill="#C3C3C3"/>
<path d="M29.8999 16.8998C29.8999 17.2248 30.2249 17.5498 30.5499 17.5498C30.9399 17.5498 31.1999 17.2248 31.1999 16.8998C31.1999 16.5098 30.9399 16.2498 30.5499 16.2498C30.2249 16.2498 29.8999 16.5098 29.8999 16.8998Z" fill="#C3C3C3"/>
<path d="M38.3496 17.5502C38.3496 17.8752 38.6746 18.2002 38.9996 18.2002C39.3896 18.2002 39.6496 17.8752 39.6496 17.5502C39.6496 17.1602 39.3896 16.9002 38.9996 16.9002C38.6746 16.9002 38.3496 17.1602 38.3496 17.5502Z" fill="#C3C3C3"/>
<path d="M27.9497 18.85C27.9497 19.175 28.2747 19.5 28.5997 19.5C28.9897 19.5 29.2497 19.175 29.2497 18.85C29.2497 18.46 28.9897 18.2 28.5997 18.2C28.2747 18.2 27.9497 18.46 27.9497 18.85Z" fill="#C3C3C3"/>
<path d="M36.3999 19.5004C36.3999 19.8254 36.7249 20.1504 37.0499 20.1504C37.4399 20.1504 37.6999 19.8254 37.6999 19.5004C37.6999 19.1104 37.4399 18.8504 37.0499 18.8504C36.7249 18.8504 36.3999 19.1104 36.3999 19.5004Z" fill="#C3C3C3"/>
<path d="M26 20.8002C26 21.1252 26.325 21.4502 26.65 21.4502C27.04 21.4502 27.3 21.1252 27.3 20.8002C27.3 20.4102 27.04 20.1502 26.65 20.1502C26.325 20.1502 26 20.4102 26 20.8002Z" fill="#C3C3C3"/>
<path d="M34.4497 21.4496C34.4497 21.7746 34.7747 22.0996 35.0997 22.0996C35.4897 22.0996 35.7497 21.7746 35.7497 21.4496C35.7497 21.0596 35.4897 20.7996 35.0997 20.7996C34.7747 20.7996 34.4497 21.0596 34.4497 21.4496Z" fill="#C3C3C3"/>
<path d="M24.0498 22.7504C24.0498 23.0754 24.3748 23.4004 24.6998 23.4004C25.0898 23.4004 25.3498 23.0754 25.3498 22.7504C25.3498 22.3604 25.0898 22.1004 24.6998 22.1004C24.3748 22.1004 24.0498 22.3604 24.0498 22.7504Z" fill="#C3C3C3"/>
<path d="M32.5 23.3998C32.5 23.7248 32.825 24.0498 33.15 24.0498C33.54 24.0498 33.8 23.7248 33.8 23.3998C33.8 23.0098 33.54 22.7498 33.15 22.7498C32.825 22.7498 32.5 23.0098 32.5 23.3998Z" fill="#C3C3C3"/>
<path d="M22.0996 24.6996C22.0996 25.0246 22.4246 25.3496 22.7496 25.3496C23.1396 25.3496 23.3996 25.0246 23.3996 24.6996C23.3996 24.3096 23.1396 24.0496 22.7496 24.0496C22.4246 24.0496 22.0996 24.3096 22.0996 24.6996Z" fill="#C3C3C3"/>
<path d="M30.5498 25.35C30.5498 25.675 30.8748 26 31.1998 26C31.5898 26 31.8498 25.675 31.8498 25.35C31.8498 24.96 31.5898 24.7 31.1998 24.7C30.8748 24.7 30.5498 24.96 30.5498 25.35Z" fill="#C3C3C3"/>
<path d="M20.1499 26.6498C20.1499 26.9748 20.4749 27.2998 20.7999 27.2998C21.1899 27.2998 21.4499 26.9748 21.4499 26.6498C21.4499 26.2598 21.1899 25.9998 20.7999 25.9998C20.4749 25.9998 20.1499 26.2598 20.1499 26.6498Z" fill="#C3C3C3"/>
<path d="M28.5996 27.3002C28.5996 27.6252 28.9246 27.9502 29.2496 27.9502C29.6396 27.9502 29.8996 27.6252 29.8996 27.3002C29.8996 26.9102 29.6396 26.6502 29.2496 26.6502C28.9246 26.6502 28.5996 26.9102 28.5996 27.3002Z" fill="#C3C3C3"/>
<path d="M18.1997 28.6C18.1997 28.925 18.5247 29.25 18.8497 29.25C19.2397 29.25 19.4997 28.925 19.4997 28.6C19.4997 28.21 19.2397 27.95 18.8497 27.95C18.5247 27.95 18.1997 28.21 18.1997 28.6Z" fill="#C3C3C3"/>
<path d="M26.6499 29.2504C26.6499 29.5754 26.9749 29.9004 27.2999 29.9004C27.6899 29.9004 27.9499 29.5754 27.9499 29.2504C27.9499 28.8604 27.6899 28.6004 27.2999 28.6004C26.9749 28.6004 26.6499 28.8604 26.6499 29.2504Z" fill="#C3C3C3"/>
<path d="M24.6997 31.1996C24.6997 31.5246 25.0247 31.8496 25.3497 31.8496C25.7397 31.8496 25.9997 31.5246 25.9997 31.1996C25.9997 30.8096 25.7397 30.5496 25.3497 30.5496C25.0247 30.5496 24.6997 30.8096 24.6997 31.1996Z" fill="#C3C3C3"/>
<path d="M22.75 33.1498C22.75 33.4748 23.075 33.7998 23.4 33.7998C23.79 33.7998 24.05 33.4748 24.05 33.1498C24.05 32.7598 23.79 32.4998 23.4 32.4998C23.075 32.4998 22.75 32.7598 22.75 33.1498Z" fill="#C3C3C3"/>
</svg>
