<?xml version="1.0" standalone="no"?>
<!DOCTYPE svg PUBLIC "-//W3C//DTD SVG 20010904//EN"
 "http://www.w3.org/TR/2001/REC-SVG-20010904/DTD/svg10.dtd">
<svg version="1.0" xmlns="http://www.w3.org/2000/svg"
 width="1800.000000pt" height="600.000000pt" viewBox="0 0 1800.000000 600.000000"
 preserveAspectRatio="xMidYMid meet">

<g transform="translate(0.000000,600.000000) scale(0.100000,-0.100000)"
fill="#000000" stroke="none">
<path d="M7536 5589 c-38 -5 -95 -16 -125 -25 -31 -9 -69 -18 -86 -21 -16 -3
-34 -9 -40 -13 -5 -5 -30 -13 -55 -20 -83 -22 -255 -115 -358 -194 -8 -6 -59
-54 -112 -106 -263 -256 -392 -615 -377 -1048 6 -215 50 -393 134 -551 12 -24
23 -47 23 -51 0 -4 -39 -25 -87 -46 -115 -49 -297 -124 -303 -124 -3 0 -3 417
0 927 5 977 4 951 49 1023 23 36 33 46 138 127 l96 73 -528 0 c-310 0 -525 -4
-519 -9 5 -5 54 -45 110 -89 109 -86 133 -123 154 -233 12 -60 14 -999 3 -998
-5 0 -235 299 -513 665 l-505 664 -1017 0 c-560 0 -1018 -2 -1018 -4 0 -2 47
-40 104 -84 123 -96 149 -139 166 -267 8 -53 10 -381 8 -975 -3 -813 -5 -900
-21 -946 -27 -81 -66 -126 -146 -168 -40 -21 -75 -35 -78 -32 -7 7 46 1265 58
1371 5 44 9 94 9 110 -1 28 -2 29 -14 12 -8 -10 -60 -134 -117 -275 -158 -398
-235 -545 -351 -667 -103 -110 -216 -145 -368 -113 l-65 14 0 864 0 865 23 50
c29 64 38 73 156 167 l98 78 -683 0 -684 -1 28 -21 c98 -73 184 -148 204 -177
49 -72 48 -56 48 -1076 0 -910 -1 -963 -19 -1013 -23 -67 -56 -106 -165 -190
l-85 -67 1023 -3 c562 -1 1480 -1 2038 0 l1016 3 -101 80 c-176 139 -172 121
-172 763 0 315 4 501 9 497 6 -3 183 -229 394 -503 373 -482 445 -568 534
-635 23 -18 43 -35 43 -38 1 -21 -1162 -351 -1314 -373 -38 -5 -39 -5 -19 13
11 11 58 41 104 67 l83 49 -258 3 c-251 2 -259 2 -295 -20 -49 -30 -332 -219
-406 -271 l-60 -43 -365 -72 c-708 -139 -1335 -243 -2060 -342 -129 -18 -236
-34 -238 -35 -2 -2 29 -266 33 -272 0 -1 114 13 251 32 572 79 1104 164 1602
256 150 28 280 49 289 47 16 -3 4 -22 -89 -144 -89 -117 -152 -254 -164 -357
-11 -91 15 -158 89 -232 71 -70 123 -97 230 -119 89 -19 292 -21 435 -5 447
49 1363 294 1739 465 l168 76 95 -23 c82 -21 119 -24 275 -24 198 0 307 17
504 75 55 17 107 30 114 30 9 0 17 -16 21 -46 9 -70 38 -124 95 -180 72 -71
131 -100 235 -119 213 -37 453 -4 719 99 104 40 327 146 353 167 6 5 27 15 47
24 l36 15 -1 -60 c-1 -49 4 -67 26 -100 47 -72 118 -99 209 -80 94 19 359 157
756 395 277 165 362 208 428 213 48 4 55 2 80 -25 15 -17 53 -72 83 -122 113
-189 284 -336 450 -386 70 -21 391 -44 615 -45 244 0 412 29 569 99 79 36 96
38 96 11 0 -10 10 -45 21 -76 28 -74 104 -150 196 -194 37 -18 62 -35 54 -38
-7 -2 -158 1 -335 7 -3375 121 -6551 -117 -9606 -720 -402 -79 -1235 -261
-1245 -271 -3 -3 54 -259 59 -265 1 -1 31 5 66 13 627 147 1569 334 2265 450
3408 567 6914 687 10870 373 1166 -92 2543 -242 3810 -415 185 -25 342 -44
348 -41 13 5 53 255 43 265 -7 6 -689 98 -1281 172 -946 118 -1895 216 -2795
290 -220 18 -1066 80 -1093 80 -6 0 -8 2 -5 5 4 5 712 53 1093 75 1339 75
2230 7 2893 -221 63 -22 118 -36 123 -32 4 4 26 55 49 113 23 58 44 110 47
117 8 21 -239 105 -492 166 -463 113 -996 167 -1656 167 -435 0 -864 -20
-1769 -82 -452 -30 -1103 -33 -1228 -4 -46 11 -98 29 -115 41 -29 19 -32 26
-35 83 -4 79 18 164 68 270 40 84 132 228 198 312 51 64 282 317 339 370 126
119 97 107 287 119 178 12 306 38 441 88 110 41 261 120 325 170 127 98 236
209 306 313 90 134 185 368 200 493 l6 53 317 211 c174 116 375 248 446 293
72 46 159 102 195 125 58 38 237 150 344 216 22 13 44 27 49 30 5 4 -23 59
-62 122 l-72 115 -47 -30 c-26 -16 -121 -77 -212 -134 -382 -241 -452 -286
-673 -433 -128 -85 -239 -156 -248 -158 -13 -4 -18 11 -28 84 -48 347 -211
638 -471 839 -171 132 -330 200 -584 249 -130 26 -152 27 -345 22 -226 -5
-328 -21 -496 -78 -454 -155 -784 -548 -871 -1039 -22 -126 -22 -354 0 -479
90 -501 407 -866 879 -1012 42 -13 77 -27 77 -32 0 -5 -40 -50 -89 -100 -49
-51 -106 -113 -127 -139 -22 -26 -43 -47 -48 -47 -5 -1 -31 20 -58 45 -58 54
-150 99 -244 119 -402 85 -1088 -206 -1293 -548 -40 -68 -60 -123 -69 -193
l-7 -53 -33 16 c-46 22 -130 117 -181 204 -24 41 -58 98 -75 127 -40 68 -96
126 -149 154 -33 18 -58 23 -117 22 -86 -1 -160 -23 -290 -89 -85 -42 -112
-58 -418 -239 -90 -53 -169 -96 -176 -96 -7 0 -17 -5 -24 -12 -17 -17 -14 3 4
27 49 66 429 431 608 584 27 23 54 48 61 54 6 7 52 48 101 92 120 109 123 112
134 141 38 99 -46 226 -159 241 -66 9 -114 -22 -276 -179 -174 -167 -338 -318
-480 -439 -104 -89 -358 -289 -404 -318 -15 -9 -56 -37 -91 -62 -36 -26 -106
-72 -156 -102 -363 -221 -658 -318 -930 -304 -62 3 -121 10 -133 16 -47 26
-16 108 70 187 60 54 162 129 224 163 33 19 86 52 118 75 l58 41 -4 80 c-9
197 -148 299 -423 312 -369 17 -984 -155 -1289 -360 -90 -61 -191 -165 -205
-213 -12 -39 -14 -41 -163 -108 -84 -38 -199 -83 -257 -101 -570 -179 -1035
-293 -1349 -331 -176 -21 -421 -16 -468 9 -40 21 -41 41 -10 117 59 143 187
289 420 478 92 75 132 101 162 106 82 15 530 120 815 191 485 121 962 259
1365 395 203 69 211 71 242 56 17 -8 65 -22 106 -30 41 -9 81 -18 88 -20 8 -2
27 -7 42 -11 l28 -6 -3 95 -3 95 95 38 c52 20 176 72 275 116 220 96 211 93
220 70 8 -23 112 -108 195 -160 150 -93 254 -139 415 -182 162 -43 276 -56
475 -54 265 3 433 31 730 120 l95 29 3 647 2 647 -507 0 c-279 0 -503 -4 -497
-8 5 -5 50 -43 101 -85 142 -119 137 -103 141 -499 l3 -328 -53 -1 c-177 -5
-265 20 -371 106 -39 31 -117 127 -117 143 0 5 19 26 43 45 103 86 157 153
197 247 31 71 34 187 7 241 -29 59 -86 118 -138 144 -45 23 -159 59 -165 52
-2 -2 -6 -65 -10 -140 l-7 -137 31 -6 c36 -7 41 -26 18 -77 -30 -67 -80 -102
-90 -64 -31 129 -32 455 -1 590 32 144 94 265 178 346 58 57 105 83 206 115
68 22 101 26 195 26 142 0 207 -12 316 -59 89 -39 162 -85 263 -166 l57 -47 0
311 c0 183 4 311 9 311 20 0 84 -88 121 -165 21 -44 172 -449 335 -900 164
-451 316 -856 338 -900 75 -151 146 -232 271 -312 80 -52 132 -76 276 -131
238 -91 273 -103 280 -95 11 13 883 2604 878 2609 -3 2 -213 3 -467 2 l-463
-3 78 -56 c107 -77 171 -135 191 -172 20 -40 12 -120 -23 -237 -51 -169 -346
-1095 -350 -1099 -2 -2 -7 -2 -10 2 -3 3 -127 356 -274 784 l-268 778 -529 2
c-481 2 -537 4 -633 22 -58 11 -137 25 -177 30 -84 13 -398 12 -497 0z m-3666
-221 c63 -66 114 -163 134 -258 15 -67 16 -169 14 -945 l-3 -870 -23 -57 c-16
-40 -39 -72 -78 -107 -31 -28 -61 -51 -67 -51 -23 0 -118 100 -137 143 -11 24
-24 75 -30 113 -13 92 -13 1766 0 1858 6 38 19 89 30 113 18 41 83 113 102
113 4 0 31 -23 58 -52z m8435 -327 c194 -96 323 -321 371 -645 23 -155 15
-430 -15 -532 -30 -105 -36 -114 -109 -169 -37 -27 -121 -93 -187 -146 -135
-107 -148 -112 -270 -98 -264 32 -462 275 -521 639 -21 130 -21 361 1 475 42
225 147 384 308 466 80 41 117 48 242 46 104 -2 115 -4 180 -36z m-1176 -2501
c39 -19 81 -66 95 -103 12 -34 -95 -172 -217 -282 -21 -19 -130 -82 -177 -103
-139 -61 -332 -87 -550 -76 -138 7 -178 22 -205 74 -21 41 -19 57 16 111 51
80 183 185 318 254 96 48 279 114 374 135 120 26 285 21 346 -10z m-4439 -88
c0 -15 -303 -154 -450 -207 -335 -119 -593 -157 -808 -119 -78 15 2 56 293
153 261 86 537 153 720 175 63 7 245 6 245 -2z"/>
<path d="M6258 4142 l-48 -16 0 -149 c0 -115 3 -148 13 -144 6 2 36 13 65 23
l54 19 -6 45 c-3 25 -9 89 -13 143 -3 53 -9 97 -12 96 -3 0 -27 -8 -53 -17z"/>
<path d="M4790 3464 c-113 -59 -207 -108 -209 -110 -2 -2 10 -31 26 -66 30
-63 90 -133 124 -143 11 -4 98 34 228 100 116 58 211 107 211 110 0 8 -161
215 -168 215 -4 0 -99 -48 -212 -106z"/>
<path d="M12152 2788 l-33 -9 3 -318 c3 -295 4 -320 22 -340 29 -32 78 -44
125 -31 65 17 52 57 -19 62 l-45 3 -3 315 c-1 173 -6 317 -10 321 -4 3 -22 2
-40 -3z"/>
<path d="M17093 2788 l-33 -9 0 -115 c0 -107 -1 -116 -17 -109 -79 33 -151 24
-195 -22 -37 -40 -46 -62 -58 -140 -13 -80 0 -190 28 -237 42 -72 126 -91 212
-46 24 12 46 18 47 13 2 -6 10 -18 17 -28 12 -16 14 -16 45 -1 30 16 31 18 16
39 -13 18 -15 70 -15 339 0 174 -3 319 -7 321 -5 2 -23 0 -40 -5z m-62 -293
l30 -16 -3 -142 -3 -141 -40 -23 c-69 -39 -123 -27 -146 34 -5 13 -9 67 -9
119 0 101 14 154 47 173 27 15 90 13 124 -4z"/>
<path d="M17285 2775 c-14 -13 -25 -29 -25 -35 0 -17 47 -60 65 -60 18 0 65
43 65 60 0 17 -47 60 -65 60 -9 0 -27 -11 -40 -25z"/>
<path d="M16073 2728 l-33 -11 0 -73 0 -73 -37 -3 c-35 -3 -38 -6 -38 -33 0
-27 3 -30 37 -33 l36 -3 4 -174 c3 -168 4 -174 27 -199 44 -47 124 -54 194
-19 19 9 27 20 23 29 -3 9 -6 16 -6 17 0 1 -29 0 -65 -1 -42 -2 -71 1 -80 8
-12 10 -15 45 -15 176 l0 164 64 0 c63 0 64 1 75 31 6 18 11 34 11 35 0 2 -34
4 -75 4 l-75 0 0 85 c0 47 -3 85 -7 84 -5 -1 -23 -6 -40 -11z"/>
<path d="M12440 2574 c-29 -5 -110 -34 -110 -39 0 -2 4 -15 10 -29 9 -25 10
-25 44 -11 20 8 60 15 89 15 66 0 87 -19 87 -77 0 -43 -12 -53 -71 -53 -42 0
-111 -28 -142 -57 -78 -75 -43 -218 58 -237 43 -8 104 7 140 36 19 15 30 18
33 10 2 -6 11 -21 21 -33 16 -20 17 -21 40 -2 20 16 22 23 12 41 -7 12 -11 80
-12 174 0 173 -9 214 -54 239 -32 19 -104 30 -145 23z m118 -316 c-3 -58 -5
-64 -37 -85 -40 -27 -97 -30 -123 -6 -21 19 -24 81 -5 106 21 28 70 47 120 47
l48 0 -3 -62z"/>
<path d="M12939 2566 c-25 -6 -59 -22 -76 -34 l-31 -22 -11 30 c-11 33 -18 35
-55 19 -15 -7 -22 -17 -18 -23 4 -6 9 -108 12 -226 l5 -215 35 0 35 0 5 185 5
184 40 23 c42 24 99 30 125 13 12 -7 16 -46 20 -207 l5 -198 35 0 35 0 0 205
c0 227 -3 242 -60 266 -40 16 -46 16 -106 0z"/>
<path d="M13349 2571 c-71 -22 -110 -77 -129 -179 -24 -137 20 -254 107 -283
37 -12 89 0 134 32 14 10 29 16 33 12 3 -3 6 -37 6 -75 0 -60 -3 -72 -25 -93
-20 -21 -34 -25 -82 -25 -32 1 -75 7 -96 14 -37 14 -39 13 -48 -11 -5 -13 -9
-26 -9 -28 0 -14 104 -39 160 -39 78 0 124 22 154 73 18 31 19 51 17 277 -2
199 0 248 13 272 14 27 14 29 -14 45 -27 16 -28 16 -42 -4 -13 -20 -16 -21
-43 -7 -39 20 -103 29 -136 19z m115 -71 l26 -10 0 -140 0 -140 -40 -20 c-48
-24 -103 -26 -125 -3 -27 26 -35 60 -35 144 0 88 16 138 51 163 26 18 84 21
123 6z"/>
<path d="M13722 2568 l-34 -9 4 -199 c3 -183 5 -201 24 -227 41 -55 134 -64
218 -21 l39 20 21 -27 c21 -27 22 -27 45 -8 20 16 22 23 12 41 -7 13 -11 92
-11 225 0 112 -2 206 -5 209 -3 3 -20 2 -38 -1 l-32 -7 -3 -187 -2 -187 -40
-20 c-50 -25 -111 -26 -133 -2 -15 16 -17 46 -17 210 0 105 -3 193 -7 195 -5
2 -23 0 -41 -5z"/>
<path d="M14260 2574 c-29 -5 -110 -34 -110 -39 0 -2 4 -15 10 -29 9 -25 10
-25 44 -11 20 8 60 15 89 15 66 0 87 -19 87 -77 0 -43 -12 -53 -71 -53 -42 0
-111 -28 -142 -57 -78 -75 -43 -218 58 -237 43 -8 104 7 140 36 19 15 30 18
33 10 2 -6 11 -21 21 -33 16 -20 17 -21 40 -2 20 16 22 23 12 41 -7 12 -11 80
-12 174 0 173 -9 214 -54 239 -32 19 -104 30 -145 23z m118 -316 c-3 -58 -5
-64 -37 -85 -40 -27 -97 -30 -123 -6 -21 19 -24 81 -5 106 21 28 70 47 120 47
l48 0 -3 -62z"/>
<path d="M14689 2571 c-71 -22 -110 -77 -129 -179 -24 -137 20 -254 107 -283
37 -12 89 0 134 32 14 10 29 16 33 12 3 -3 6 -37 6 -75 0 -60 -3 -72 -25 -93
-20 -21 -34 -25 -82 -25 -32 1 -75 7 -96 14 -37 14 -39 13 -48 -11 -5 -13 -9
-26 -9 -28 0 -14 104 -39 160 -39 78 0 124 22 154 73 18 31 19 51 17 277 -2
199 0 248 13 272 14 27 14 29 -14 45 -27 16 -28 16 -42 -4 -13 -20 -16 -21
-43 -7 -39 20 -103 29 -136 19z m115 -71 l26 -10 0 -140 0 -140 -40 -20 c-48
-24 -103 -26 -125 -3 -27 26 -35 60 -35 144 0 88 16 138 51 163 26 18 84 21
123 6z"/>
<path d="M15155 2571 c-98 -24 -149 -109 -149 -248 1 -168 112 -265 268 -233
64 13 89 29 81 52 -6 15 -18 16 -89 11 -65 -5 -88 -2 -114 11 -39 20 -72 70
-72 108 l0 27 148 3 147 3 -3 55 c-7 119 -49 187 -130 210 -41 11 -44 11 -87
1z m103 -83 c23 -26 42 -69 42 -99 0 -18 -8 -19 -111 -19 l-112 0 6 43 c8 59
51 97 110 97 32 0 49 -6 65 -22z"/>
<path d="M15747 2566 c-49 -18 -67 -34 -84 -75 -17 -40 -9 -87 21 -120 11 -12
55 -40 97 -61 42 -22 79 -46 83 -55 12 -31 6 -72 -12 -88 -23 -21 -95 -22
-150 -3 -43 15 -52 10 -52 -30 0 -23 68 -46 135 -47 102 -1 158 45 158 128 0
61 -21 87 -105 130 -40 20 -81 44 -90 52 -24 22 -23 75 2 98 19 17 56 18 144
3 12 -2 21 5 27 20 8 20 5 25 -24 36 -53 22 -109 27 -150 12z"/>
<path d="M16372 2568 l-34 -9 4 -199 c3 -183 5 -201 24 -227 41 -55 134 -64
218 -21 l39 20 21 -27 c21 -27 22 -27 45 -8 20 16 22 23 12 41 -7 13 -11 92
-11 225 0 112 -2 206 -5 209 -3 3 -20 2 -38 -1 l-32 -7 -3 -187 -2 -187 -40
-20 c-50 -25 -111 -26 -133 -2 -15 16 -17 46 -17 210 0 105 -3 193 -7 195 -5
2 -23 0 -41 -5z"/>
<path d="M17645 2575 c-5 -2 -22 -6 -37 -9 -34 -8 -84 -50 -104 -88 -44 -84
-37 -241 13 -312 40 -57 84 -79 152 -79 95 0 157 49 186 145 37 127 -6 277
-93 322 -28 14 -100 27 -117 21z m90 -81 c34 -22 55 -84 55 -164 0 -123 -40
-180 -125 -180 -76 0 -115 61 -115 180 0 83 22 145 59 165 35 19 96 19 126 -1z"/>
<path d="M17214 2556 c-13 -33 0 -51 38 -54 l38 -3 2 -202 3 -202 35 0 35 0 0
235 0 235 -73 3 c-57 2 -74 0 -78 -12z"/>
</g>
</svg>
