<svg version="1.1" id="Layer_1" xmlns="http://www.w3.org/2000/svg" xmlns:xlink="http://www.w3.org/1999/xlink" x="0px" y="0px"
	 width="100%" viewBox="0 0 1800 600" enable-background="new 0 0 1800 600" xml:space="preserve">
<path fill="#FFFEFE" opacity="1.000000" stroke="none" 
	d="
M1357.000000,601.000000 
	C904.666687,601.000000 452.833344,601.000000 1.000000,601.000000 
	C1.000000,401.000000 1.000000,201.000000 1.000000,1.000000 
	C601.000000,1.000000 1201.000000,1.000000 1801.000000,1.000000 
	C1801.000000,201.000000 1801.000000,401.000000 1801.000000,601.000000 
	C1653.166626,601.000000 1505.333374,601.000000 1357.000000,601.000000 
M1232.850220,386.296844 
	C1238.370239,394.823425 1246.140991,395.153198 1258.101807,387.355927 
	C1259.403442,389.305176 1260.711304,391.263733 1261.944214,393.109894 
	C1265.939331,391.427582 1268.169067,389.662109 1265.677856,385.465485 
	C1264.832153,384.040436 1264.989624,381.922668 1264.973633,380.118958 
	C1264.905640,372.463104 1265.007935,364.805634 1264.927246,357.150055 
	C1264.840698,348.940460 1261.846069,345.335724 1254.001831,343.683960 
	C1246.832886,342.174408 1240.361206,344.161255 1233.739258,347.505371 
	C1234.529907,349.485596 1235.223267,351.222260 1235.918823,352.964264 
	C1250.302002,346.881622 1259.785645,349.456238 1256.578125,361.912048 
	C1253.721436,362.284882 1250.785889,362.679413 1247.847290,363.049469 
	C1238.610107,364.212616 1232.756226,368.864441 1231.440918,376.939240 
	C1230.957397,379.907959 1231.975952,383.121338 1231.504395,386.534454 
	C1230.634277,386.299652 1229.747925,385.814087 1228.896606,385.869263 
	C1221.264771,386.363861 1220.948608,386.098907 1220.947998,378.466522 
	C1220.946777,361.183197 1220.947754,343.899841 1220.947754,326.616516 
	C1220.947754,324.859436 1220.947632,323.102325 1220.947632,321.243439 
	C1211.428467,322.841309 1213.132690,321.766022 1213.079956,329.653656 
	C1212.983276,344.111176 1212.994385,358.570190 1213.088989,373.027740 
	C1213.116089,377.153564 1213.369751,381.305115 1213.910522,385.393097 
	C1214.511475,389.935883 1218.764526,392.927094 1224.001831,392.945282 
	C1229.567383,392.964600 1231.460938,391.399353 1232.850220,386.296844 
M1353.067261,160.070740 
	C1352.026978,153.207108 1351.460449,146.231415 1349.867798,139.498444 
	C1341.115234,102.496758 1320.462402,74.442650 1286.608887,56.525547 
	C1266.036743,45.637615 1243.869873,41.224365 1220.824829,40.518417 
	C1191.471069,39.619202 1163.541260,45.232784 1138.027588,60.141079 
	C1115.338013,73.399193 1098.369995,92.330368 1087.076538,115.990349 
	C1074.624390,142.077698 1070.432007,169.594055 1074.924561,198.283066 
	C1080.092407,231.284805 1094.601318,259.066376 1120.841553,280.266235 
	C1135.608765,292.196899 1152.407715,299.913208 1170.412476,304.752625 
	C1161.679565,314.249023 1152.946533,323.745422 1144.649048,332.768219 
	C1139.450439,329.032379 1134.583496,324.653229 1128.972656,321.675964 
	C1114.851562,314.182892 1099.356567,314.031036 1084.159546,316.233337 
	C1055.871460,320.332855 1029.804077,330.568604 1006.839417,347.913025 
	C995.782654,356.263824 985.701050,365.644043 980.776733,379.070282 
	C978.817505,384.412170 977.915710,390.141937 976.455017,396.006378 
	C968.632629,390.531036 962.282654,383.691193 957.336426,375.582367 
	C953.718140,369.650574 950.672363,363.358612 946.889648,357.540436 
	C940.633728,347.917969 931.776550,342.284790 920.044312,344.022675 
	C912.629578,345.121033 904.840271,346.745270 898.310791,350.198242 
	C878.003357,360.937317 858.219482,372.666046 838.224243,383.996307 
	C836.330200,385.069580 834.378174,386.040558 832.453064,387.059021 
	C832.960815,384.943909 833.971313,383.645538 835.135071,382.503387 
	C842.330200,375.441620 849.394592,368.235626 856.809875,361.411560 
	C876.344299,343.434418 896.000916,325.589264 915.688293,307.779358 
	C921.133545,302.853302 925.260681,297.463379 923.613586,289.609222 
	C922.018433,282.002716 917.206238,276.713928 910.020508,274.439514 
	C902.346863,272.010620 895.463013,274.397644 889.517639,279.962646 
	C871.139832,297.164673 852.752319,314.359406 834.156555,331.324615 
	C813.385437,350.274384 791.053528,367.268036 767.188049,382.108215 
	C746.605591,394.906891 725.203186,406.138214 701.285522,411.623840 
	C688.211548,414.622406 675.041687,415.153137 661.801147,413.060638 
	C657.133606,412.322968 655.839172,409.286316 658.217346,405.158478 
	C659.040894,403.728973 659.899292,402.208191 661.099670,401.126038 
	C667.120605,395.697937 672.953064,389.988647 679.437439,385.165558 
	C687.133057,379.441589 695.443420,374.546997 703.436829,369.217102 
	C704.455322,368.538025 705.776611,367.493164 705.931641,366.463287 
	C707.956665,353.011047 705.620483,339.059204 688.738708,331.688904 
	C676.964050,326.548309 664.610779,325.750061 652.095886,326.484375 
	C629.673462,327.800018 607.829407,332.343384 586.411560,339.021362 
	C566.131958,345.344452 546.727905,353.527283 529.260986,365.849976 
	C522.529419,370.598999 516.231567,375.930573 513.447876,383.863159 
	C512.289185,387.165131 510.533722,388.617676 507.755554,389.985779 
	C490.030426,398.714203 471.540009,405.314850 452.570312,410.788452 
	C409.985260,423.076202 367.478363,435.780914 323.030365,439.384033 
	C313.371185,440.167053 303.444092,439.188995 293.786896,437.913025 
	C287.287048,437.054230 286.481750,434.610748 289.099030,428.413910 
	C290.899200,424.151611 293.066040,419.985199 295.547516,416.080017 
	C305.501648,400.414642 319.912201,389.144745 333.731232,377.198822 
	C341.075653,370.849884 349.298859,367.486603 358.482147,365.614532 
	C367.733734,363.728546 377.076355,362.190308 386.209930,359.841858 
	C423.589752,350.230469 461.016174,340.768738 498.204010,330.453522 
	C522.115967,323.820740 545.640198,315.790955 569.342285,308.400299 
	C575.471252,306.489227 581.615356,304.626923 588.464722,303.120483 
	C597.425232,305.532684 606.385742,307.944916 615.872681,310.498871 
	C615.872681,303.892792 615.872681,297.988892 616.573425,291.853607 
	C623.439453,288.990051 630.313721,286.145874 637.169800,283.258698 
	C649.337341,278.134735 661.493896,272.984589 673.872498,268.559753 
	C683.644470,279.173157 695.561829,286.841888 708.392395,293.076569 
	C735.722046,306.356750 764.749268,310.434662 794.836670,308.417511 
	C818.070068,306.859833 840.478027,301.440399 862.589600,294.413239 
	C865.816345,293.387756 866.075500,291.722504 866.072266,289.023346 
	C866.023621,248.552216 866.040894,208.081024 866.027222,167.609848 
	C866.026855,166.507172 865.856323,165.404556 865.776001,164.433167 
	C832.112000,164.433167 798.803772,164.433167 764.925964,164.433167 
	C768.518982,167.379990 771.428833,170.140732 774.697083,172.378128 
	C785.242737,179.597641 790.837952,189.047089 789.723877,202.228363 
	C789.178772,208.677658 789.629456,215.211136 789.629456,221.706512 
	C789.629456,233.001312 789.629456,244.296112 789.629456,256.082275 
	C786.609253,256.082275 783.987427,255.975372 781.376892,256.101776 
	C772.575989,256.527924 764.231079,255.380707 756.209106,251.181198 
	C747.520142,246.632477 741.505188,239.604156 736.223267,231.307343 
	C747.004944,223.299835 756.347107,214.145035 761.227478,201.187820 
	C770.779175,175.828674 749.991455,157.470901 729.397339,158.425339 
	C729.397339,167.825439 729.397339,177.250687 729.397339,186.674530 
	C735.033508,188.087662 735.675537,189.042786 732.637817,193.974701 
	C730.708557,197.107010 727.751282,199.606171 724.966553,201.533554 
	C724.135193,195.791718 722.971191,190.075073 722.533997,184.303375 
	C721.129822,165.769028 721.642090,147.337234 728.143921,129.646255 
	C733.708984,114.504341 742.728455,102.322319 758.804321,96.926025 
	C783.214478,88.732124 806.115601,92.357956 827.490845,106.205086 
	C833.791138,110.286476 839.569519,115.173447 846.169800,120.128716 
	C846.169800,99.037361 846.169800,78.658302 846.169800,57.914566 
	C847.026672,58.308250 847.496399,58.411072 847.815918,58.687443 
	C855.612122,65.431374 859.586243,74.531631 863.009460,83.877045 
	C882.715149,137.673889 902.240845,191.536896 922.052307,245.294647 
	C926.888733,258.417847 933.672302,270.415894 944.721802,279.648773 
	C953.676270,287.131012 963.777405,292.394043 974.543030,296.534515 
	C985.886841,300.897278 997.299133,305.082153 1009.024353,309.473145 
	C1038.660278,221.694061 1068.060913,134.611465 1097.484863,47.460148 
	C1066.085083,47.460148 1035.281494,47.460148 1004.338135,47.460148 
	C1012.025635,53.537128 1019.552917,59.252728 1026.798706,65.305244 
	C1030.997803,68.812721 1032.938354,73.573738 1031.758301,79.121597 
	C1030.521118,84.937576 1029.349854,90.799675 1027.585693,96.466019 
	C1018.698425,125.012650 1009.642517,153.506882 1000.609253,182.007919 
	C998.251770,189.445923 995.763367,196.842422 993.029907,205.189850 
	C992.069458,203.093414 991.517151,202.116562 991.158875,201.073090 
	C974.046570,151.234940 956.904297,101.406921 939.948181,51.515656 
	C938.677734,47.777641 936.871948,46.961391 933.184326,46.980747 
	C902.685730,47.140842 872.185852,47.060104 841.686401,47.090454 
	C838.934875,47.093193 836.122498,47.807358 833.442261,47.437836 
	C817.718384,45.269997 802.093933,41.794262 786.307190,40.796227 
	C756.930237,38.939022 728.848633,44.758762 703.051331,59.493324 
	C677.015076,74.364372 658.643188,96.018112 648.131348,124.035210 
	C638.661865,149.273926 636.501465,175.517731 640.233398,202.074722 
	C642.333923,217.022079 647.122864,231.325287 654.580261,244.793747 
	C641.688416,250.200211 628.796570,255.606674 615.926208,260.074066 
	C615.926941,215.575684 615.927490,171.077301 615.928528,126.578918 
	C615.928833,113.079697 615.741028,99.576981 615.989624,86.082321 
	C616.201904,74.557724 619.759766,64.610336 630.154968,57.956852 
	C634.883850,54.930157 639.057861,51.036736 643.747803,47.327438 
	C608.617371,47.327438 574.060364,47.327438 538.540710,47.327438 
	C541.829224,49.867943 544.441406,51.803513 546.963501,53.850143 
	C554.090637,59.633606 562.534912,64.408707 564.603943,74.400185 
	C565.708923,79.735939 566.673157,85.215431 566.714661,90.637611 
	C566.931641,118.962959 566.835754,147.290726 566.832153,175.617645 
	C566.831970,176.966385 566.674377,178.315109 566.539185,180.478180 
	C565.177124,178.855164 564.401062,178.002472 563.704041,177.089447 
	C531.402954,134.780624 499.064728,92.499893 466.921967,50.071095 
	C464.968933,47.493065 463.115112,47.035454 460.339020,47.037350 
	C395.342773,47.081745 330.346527,47.070164 265.350250,47.082466 
	C263.986053,47.082722 262.621857,47.243217 260.420258,47.381596 
	C265.383728,51.237049 269.427368,54.714996 273.804871,57.703953 
	C281.493927,62.954037 286.251465,69.977501 287.645874,79.167404 
	C288.143219,82.445122 288.435181,85.788071 288.438446,89.101616 
	C288.494110,145.764786 288.699432,202.429169 288.391296,259.090668 
	C288.274170,280.621033 282.295563,288.633850 263.677185,294.905518 
	C265.973389,244.515701 268.256744,194.407074 270.590454,143.193283 
	C269.419891,145.506378 268.614014,146.868515 268.016235,148.316544 
	C263.283478,159.781082 258.552094,171.246460 253.894073,182.741486 
	C246.879959,200.050995 239.890839,217.380157 228.774673,232.605362 
	C222.162094,241.662277 214.498947,250.050247 202.784332,251.334503 
	C195.565750,252.125870 188.037399,250.337418 180.694046,249.361664 
	C179.965363,249.264847 179.087387,246.758972 179.073868,245.363495 
	C178.949432,232.532104 178.999146,219.699020 179.000748,206.866425 
	C179.005707,167.035385 178.950836,127.204193 179.054810,87.373413 
	C179.085754,75.517670 182.530060,65.204361 193.097488,58.196835 
	C197.822769,55.063389 202.058075,51.191059 206.741043,47.475273 
	C161.356323,47.475273 116.445412,47.475273 70.904984,47.475273 
	C76.617661,51.878399 81.725235,55.843159 86.863480,59.767757 
	C92.202690,63.845848 96.078918,68.916214 97.145210,75.677032 
	C97.943985,80.741714 98.857315,85.863441 98.879341,90.963402 
	C99.030518,125.960747 98.964149,160.959045 98.959473,195.957031 
	C98.956535,217.955704 99.115059,239.956421 98.857903,261.952209 
	C98.718262,273.896790 95.151436,284.378967 84.370674,291.375732 
	C79.906776,294.272858 75.981392,297.999756 71.275375,301.779572 
	C207.761627,301.779572 343.313843,301.779572 479.860901,301.779572 
	C476.019287,298.805206 473.105408,296.118439 469.798553,294.064331 
	C456.421661,285.755005 451.734894,273.498932 451.924103,258.229889 
	C452.279297,229.569290 452.021820,200.901123 452.034515,172.236099 
	C452.035187,170.707657 452.178497,169.179276 452.297913,166.805115 
	C453.883636,168.485214 454.872192,169.368286 455.668121,170.399979 
	C476.438141,197.321976 497.187866,224.259659 517.941895,251.194000 
	C527.288513,263.323883 536.339417,275.736481 548.962891,284.771667 
	C548.239624,285.166840 547.559998,285.715637 546.786926,285.935242 
	C504.885681,297.839630 462.977997,309.721405 421.060181,321.567322 
	C419.983246,321.871613 418.786133,321.750702 417.645081,321.828125 
	C417.595459,321.555603 417.545837,321.283081 417.496246,321.010559 
	C423.760010,317.263397 430.023804,313.516235 436.851837,309.431519 
	C435.591400,309.101013 435.152039,308.885651 434.712372,308.885040 
	C418.046051,308.861786 401.379333,308.805878 384.713867,308.924622 
	C382.829407,308.938019 380.686798,309.542480 379.114838,310.565674 
	C369.534088,316.801575 360.216248,323.447937 350.550110,329.544159 
	C342.057861,334.899994 334.981415,342.926666 324.021515,343.843597 
	C320.751404,344.117188 317.548401,345.140594 314.301117,345.748138 
	C279.907898,352.183044 245.555374,358.849030 211.101685,364.942566 
	C187.504120,369.116089 163.776535,372.565033 140.084641,376.191223 
	C122.212486,378.926697 104.304825,381.430267 86.412827,384.035980 
	C79.742912,385.007385 73.072578,385.975891 66.342049,386.954468 
	C67.600082,396.764984 68.777763,405.948944 70.134315,416.527771 
	C142.291260,405.024780 213.892181,393.610443 284.898407,382.290924 
	C284.947968,382.225677 284.388123,383.018402 283.772614,383.765198 
	C274.243195,395.327637 265.365295,407.300171 260.714050,421.801270 
	C254.706070,440.532166 261.364594,455.717590 279.144257,463.503815 
	C292.960602,469.554474 307.644653,469.447754 322.262054,468.535858 
	C348.525269,466.897430 374.250336,461.751678 399.662354,455.187775 
	C441.894745,444.279144 484.408234,434.156128 523.814148,414.550110 
	C525.251099,413.835205 527.392456,413.704926 528.942444,414.173187 
	C552.087036,421.165070 575.246155,419.621033 598.371277,414.325775 
	C607.516663,412.231628 616.531677,409.568451 625.646851,407.153534 
	C627.081543,424.033234 636.329590,436.855347 650.946960,440.221741 
	C660.245483,442.363190 670.008301,443.542755 679.539246,443.412811 
	C703.500061,443.086090 725.933289,435.966736 747.398621,425.692657 
	C756.474426,421.348663 765.373169,416.634979 774.734985,411.895630 
	C774.565674,412.936096 774.465698,413.558716 774.362976,414.180847 
	C772.413757,425.979767 778.681580,434.456360 790.471497,435.956085 
	C797.876770,436.898041 804.798401,434.848145 811.056824,431.387024 
	C836.557739,417.284210 861.844727,402.795349 887.287354,388.586273 
	C895.534790,383.980286 903.836182,379.389496 912.449768,375.546906 
	C919.208374,372.531830 923.340454,374.588196 926.874573,380.154297 
	C932.464600,388.958466 937.657776,398.192291 944.422302,406.033630 
	C956.218323,419.707184 970.953674,428.960419 989.647644,430.175049 
	C1003.767090,431.092468 1017.885620,432.149139 1032.022095,432.648376 
	C1050.005005,433.283417 1067.938843,432.587006 1085.257080,426.957520 
	C1091.885864,424.802795 1098.322632,422.057617 1105.181763,419.454437 
	C1106.571533,435.971924 1117.320557,444.805328 1131.051392,451.320435 
	C753.894348,436.006775 381.005127,463.290009 13.157925,549.640015 
	C15.514307,559.422058 17.712172,568.546082 19.915579,577.693054 
	C25.828054,576.358582 31.269669,575.039429 36.749916,573.907288 
	C91.999466,562.494202 147.120972,550.399048 202.552002,539.946289 
	C246.792206,531.603760 291.347046,524.839722 335.883850,518.189636 
	C369.905701,513.109619 404.088196,509.054382 438.253998,505.005035 
	C469.920135,501.252014 501.633484,497.849243 533.372986,494.777252 
	C563.125916,491.897583 592.916748,489.319672 622.733826,487.217896 
	C656.568909,484.832794 690.446960,483.037842 724.315857,481.159485 
	C740.253357,480.275574 756.209290,479.666443 772.164124,479.164459 
	C796.952026,478.384552 821.743774,477.354370 846.538086,477.227356 
	C902.692627,476.939667 958.849792,477.110748 1015.005859,477.164948 
	C1025.167358,477.174744 1035.333740,477.373047 1045.489014,477.733002 
	C1073.936035,478.741302 1102.380371,479.831421 1130.822021,480.982300 
	C1153.422485,481.896759 1176.025024,482.802460 1198.612671,483.982117 
	C1219.027710,485.048370 1239.426514,486.436798 1259.827393,487.762451 
	C1284.497314,489.365540 1309.174072,490.890656 1333.824951,492.752686 
	C1354.218384,494.293091 1374.580322,496.253265 1394.952881,498.065430 
	C1415.967407,499.934723 1436.998047,501.650970 1457.984619,503.796692 
	C1482.613647,506.314819 1507.200928,509.240234 1531.809814,511.957672 
	C1550.751343,514.049255 1569.717163,515.934937 1588.638184,518.197205 
	C1611.690674,520.953552 1634.712769,523.968628 1657.738647,526.944458 
	C1684.719971,530.431396 1711.691162,533.997498 1738.666992,537.526794 
	C1744.970459,538.351501 1751.275269,539.166626 1757.733521,540.006226 
	C1758.506470,534.915039 1759.253296,530.336548 1759.884399,525.742188 
	C1760.529907,521.043640 1761.061890,516.329529 1761.665527,511.444489 
	C1591.623901,487.542053 1421.470581,468.950317 1250.510742,457.619690 
	C1251.738525,457.133026 1252.967896,456.854492 1254.209839,456.776825 
	C1270.158203,455.779236 1286.104858,454.746185 1302.058960,453.847412 
	C1337.117798,451.872437 1372.163330,449.512482 1407.247559,448.197296 
	C1430.518188,447.324951 1453.871338,447.304749 1477.142090,448.151062 
	C1502.693115,449.080322 1528.252686,450.830902 1553.696411,453.353851 
	C1578.424927,455.805878 1602.769409,460.927032 1626.624634,468.025909 
	C1635.935059,470.796509 1645.085815,474.103821 1654.556274,477.248718 
	C1658.025146,468.547333 1661.449097,459.958679 1665.002319,451.045868 
	C1662.755981,450.005768 1660.734497,448.905762 1658.600464,448.106384 
	C1627.803467,436.569855 1595.828613,429.647125 1563.378418,425.242737 
	C1542.983643,422.474640 1522.357300,421.217712 1501.794434,419.926788 
	C1464.527588,417.587128 1427.229126,418.014954 1389.945557,419.834198 
	C1370.356689,420.790009 1350.765259,421.721405 1331.187622,422.876740 
	C1298.968628,424.778168 1266.774170,427.138184 1234.541260,428.744202 
	C1215.931274,429.671509 1197.248047,430.136292 1178.633179,429.593597 
	C1166.640015,429.243958 1154.566895,427.372986 1142.802856,424.889374 
	C1134.519287,423.140564 1133.154663,419.220490 1134.430786,410.746826 
	C1136.040405,400.057373 1140.159546,390.327209 1145.555908,381.125214 
	C1161.952148,353.165375 1184.819946,330.777710 1209.037842,308.947144 
	C1220.889404,307.944641 1232.944824,307.993988 1244.554443,305.743439 
	C1280.141479,298.844879 1309.451050,281.496185 1330.357178,251.213074 
	C1341.313110,235.343216 1348.328857,217.899246 1351.734741,198.365402 
	C1352.725342,197.320221 1353.557373,196.033432 1354.729492,195.264999 
	C1390.462036,171.837738 1426.208374,148.431244 1462.003052,125.099022 
	C1470.671753,119.448441 1479.517700,114.069420 1488.424805,108.475967 
	C1483.936157,101.222717 1479.566772,94.566467 1475.648804,87.654449 
	C1473.791260,84.377396 1471.988281,84.586800 1469.331543,86.291069 
	C1439.833862,105.213028 1410.307129,124.089714 1380.808350,143.009781 
	C1371.562134,148.940033 1362.375977,154.963852 1353.067261,160.070740 
M490.918243,280.351196 
	C500.456726,275.665558 509.995209,270.979889 519.926941,266.101074 
	C513.565613,257.815399 507.739746,250.227158 501.875732,242.589233 
	C486.979919,250.213531 472.568207,257.590057 457.941254,265.076752 
	C458.982971,267.926147 459.685486,270.465485 460.820679,272.793854 
	C462.191101,275.604614 463.722168,278.385101 465.547028,280.916809 
	C470.303772,287.516022 474.979431,288.518494 482.294464,284.809998 
	C484.958923,283.459167 487.619080,282.099823 490.918243,280.351196 
M1325.226074,405.812805 
	C1325.986084,406.854523 1326.572876,408.579437 1327.534912,408.823120 
	C1332.462280,410.071106 1337.509888,411.871796 1342.471558,411.746155 
	C1353.390259,411.469666 1359.491943,404.067139 1358.978027,393.540039 
	C1358.467651,383.082611 1358.043213,372.609772 1358.039673,362.143524 
	C1358.037842,356.850037 1359.048950,351.556244 1359.662842,345.681580 
	C1358.852173,345.187500 1357.087036,344.111664 1355.203491,342.963623 
	C1354.084473,344.536865 1353.177002,345.812683 1352.291992,347.056915 
	C1337.580688,338.352600 1325.907837,345.580322 1323.570190,358.470917 
	C1322.410889,364.863892 1322.222046,371.778168 1323.318848,378.160126 
	C1325.345581,389.951935 1336.310303,394.062469 1346.320312,387.543488 
	C1347.470337,386.794556 1348.625732,386.053772 1351.030396,384.500671 
	C1351.030396,389.573730 1351.220703,393.541595 1350.981201,397.483337 
	C1350.695190,402.194153 1347.680176,405.152924 1342.842407,404.955505 
	C1338.423340,404.775177 1333.884277,404.236633 1329.692749,402.918732 
	C1326.801880,402.009766 1326.186035,402.975037 1325.226074,405.812805 
M1466.037354,410.695587 
	C1467.998657,411.030975 1469.961914,411.355713 1471.921021,411.703522 
	C1484.102417,413.866119 1493.539795,405.650513 1492.977905,393.633606 
	C1492.465576,382.679108 1492.052124,371.709717 1492.045654,360.746613 
	C1492.042847,355.944214 1493.160767,351.141144 1493.836182,345.814240 
	C1492.916016,345.245270 1491.148071,344.151947 1489.233276,342.967896 
	C1488.152100,344.480072 1487.233398,345.765106 1486.333740,347.023376 
	C1471.017456,338.203613 1459.824585,345.891724 1457.441040,358.827240 
	C1456.293701,365.053833 1456.230835,371.797668 1457.270996,378.041687 
	C1459.234375,389.827118 1470.219116,394.084564 1480.209473,387.620453 
	C1481.401001,386.849457 1482.572632,386.047485 1485.010742,384.421295 
	C1485.010742,389.607117 1485.297974,393.751984 1484.934448,397.838959 
	C1484.526245,402.427734 1481.571411,405.176270 1476.986328,404.958618 
	C1471.641724,404.704865 1466.332275,403.713257 1460.555054,402.984802 
	C1460.142334,404.003174 1459.485107,405.625214 1458.666748,407.644684 
	C1461.091431,408.601440 1463.211060,409.437775 1466.037354,410.695587 
M1716.545166,387.494110 
	C1716.011108,384.941467 1715.033447,382.392151 1715.014160,379.835602 
	C1714.879150,362.036621 1714.949463,344.236084 1714.932739,326.436066 
	C1714.931152,324.709351 1714.786743,322.982727 1714.704834,321.172821 
	C1707.057007,322.755066 1707.057007,322.755066 1707.057007,329.869019 
	C1707.057007,335.159668 1707.057007,340.450287 1707.057007,346.210724 
	C1705.442505,345.511566 1704.295898,344.971863 1703.118286,344.511963 
	C1693.878540,340.903564 1684.606934,344.753357 1681.418579,354.096954 
	C1678.235962,363.424133 1678.165527,373.060272 1681.251099,382.451660 
	C1683.917847,390.567810 1691.121704,394.298798 1699.152344,392.005554 
	C1702.282227,391.111786 1705.218750,389.540192 1708.275146,388.264038 
	C1709.340210,389.856720 1710.463623,391.536560 1711.533325,393.136169 
	C1717.049927,390.643677 1717.049927,390.643677 1716.545166,387.494110 
M1434.876465,362.453278 
	C1430.270142,363.613281 1425.377075,364.142395 1421.122070,366.075653 
	C1414.089233,369.271027 1411.521851,377.027527 1414.110107,384.627167 
	C1416.018799,390.231049 1422.412109,394.245728 1428.320068,392.761688 
	C1432.496216,391.712677 1436.385376,389.522247 1440.485962,387.806519 
	C1441.404175,389.278076 1442.587524,391.174316 1443.740479,393.022095 
	C1449.087646,390.457977 1449.005127,390.481201 1447.574219,385.392883 
	C1447.089966,383.670776 1446.986328,381.799835 1446.971436,379.994812 
	C1446.908569,372.345734 1447.016479,364.695007 1446.925049,357.046509 
	C1446.827515,348.900665 1443.807251,345.314301 1435.916748,343.669830 
	C1428.755249,342.177307 1422.298096,344.194031 1415.711914,347.519318 
	C1416.537720,349.528809 1417.249634,351.261261 1417.486328,351.837341 
	C1423.330444,351.153564 1428.333984,350.096741 1433.330322,350.129608 
	C1437.481689,350.156921 1439.200562,353.335846 1439.055908,357.394379 
	C1438.973389,359.711792 1439.947021,362.745880 1434.876465,362.453278 
M1520.847412,392.925812 
	C1526.702026,392.994690 1532.239380,391.915192 1537.452393,388.616241 
	C1536.668457,387.021820 1536.023071,385.709351 1535.404419,384.451019 
	C1516.506226,387.957031 1508.189941,383.725800 1509.317017,370.944244 
	C1515.581055,370.944244 1521.882080,370.944244 1528.183228,370.944244 
	C1539.392090,370.944244 1539.392212,370.944244 1537.956177,359.848816 
	C1536.760376,350.609436 1531.802124,344.991974 1523.376953,343.330994 
	C1516.410400,341.957520 1507.740723,346.163757 1504.452148,353.231110 
	C1502.736816,356.917175 1501.536377,361.118561 1501.289185,365.159729 
	C1500.579712,376.767548 1503.658569,390.209686 1520.847412,392.925812 
M1390.165771,391.938629 
	C1392.955444,390.655609 1395.745117,389.372589 1398.444946,388.130951 
	C1399.710571,389.947113 1400.811890,391.527405 1401.848267,393.014404 
	C1405.773926,391.606140 1408.196045,390.050476 1405.693359,385.722839 
	C1404.860962,384.283478 1404.986328,382.188507 1404.976562,380.391663 
	C1404.917969,369.576263 1404.959961,358.760376 1404.933472,347.944733 
	C1404.929688,346.386505 1404.738525,344.828766 1404.651123,343.524261 
	C1397.532471,342.738220 1396.610596,346.324615 1396.941406,351.837311 
	C1397.389160,359.298218 1397.052734,366.806213 1397.052734,374.294006 
	C1397.052734,382.511017 1392.943237,386.404175 1384.715454,386.062164 
	C1380.273926,385.877533 1378.028320,383.572144 1377.963257,379.190094 
	C1377.896606,374.698395 1377.947632,370.204956 1377.947510,365.712280 
	C1377.947266,358.282288 1377.947388,350.852264 1377.947388,343.339355 
	C1368.739014,344.757904 1370.119385,343.702209 1370.067871,351.138611 
	C1370.004517,360.289917 1369.931885,369.444061 1370.087280,378.593170 
	C1370.241699,387.678406 1373.826050,391.998962 1381.979858,392.845703 
	C1384.381348,393.095093 1386.890015,392.311127 1390.165771,391.938629 
M1635.054199,347.023438 
	C1635.053711,357.503204 1634.825073,367.989319 1635.115845,378.460999 
	C1635.421631,389.476196 1640.067505,393.320618 1650.314209,392.724731 
	C1654.740845,392.467316 1659.043701,390.084961 1663.708252,388.568604 
	C1664.563110,389.753021 1665.771240,391.426819 1666.909546,393.003937 
	C1670.769287,391.568237 1673.284790,390.042694 1670.680908,385.690552 
	C1669.833740,384.274567 1669.985229,382.158325 1669.975708,380.360809 
	C1669.918457,369.548645 1669.960083,358.735962 1669.932983,347.923553 
	C1669.929077,346.368988 1669.732300,344.814850 1669.643433,343.529663 
	C1662.483398,342.726318 1661.619507,346.364960 1661.942993,351.852661 
	C1662.382690,359.312286 1662.052612,366.817322 1662.052612,374.302887 
	C1662.052612,382.511353 1657.938232,386.405609 1649.712646,386.062134 
	C1645.272583,385.876709 1643.032349,383.570770 1642.962646,379.190582 
	C1642.896484,375.032959 1642.947510,370.873505 1642.947388,366.714844 
	C1642.947144,358.951752 1642.947388,351.188660 1642.947388,342.157654 
	C1639.665039,343.812988 1637.367310,344.971802 1635.054199,347.023438 
M1776.949219,390.706818 
	C1788.224609,385.011444 1790.783325,366.161896 1785.158936,354.471619 
	C1781.627930,347.132324 1775.050903,342.789154 1767.557251,343.059967 
	C1759.502441,343.351044 1752.182739,348.162811 1750.241333,356.139526 
	C1748.797607,362.071198 1748.432861,368.560760 1749.073364,374.645447 
	C1750.604980,389.196472 1762.648071,396.140991 1776.949219,390.706818 
M1284.067749,348.933105 
	C1283.214844,347.079346 1282.361816,345.225616 1281.400757,343.136841 
	C1278.933838,344.414032 1277.061768,345.383179 1276.151978,345.854187 
	C1276.482300,350.928497 1276.963989,355.307220 1277.013672,359.690826 
	C1277.133911,370.293640 1277.052734,380.898743 1277.052734,391.658447 
	C1279.939575,391.658447 1282.176147,391.658447 1284.947266,391.658447 
	C1284.947266,381.596222 1285.452148,371.776947 1284.765869,362.041595 
	C1284.324585,355.781677 1287.065430,352.913269 1292.187134,350.947144 
	C1298.349243,348.581665 1305.055054,349.505005 1304.126709,358.706360 
	C1303.694214,362.993988 1304.052734,367.361389 1304.052734,371.692657 
	C1304.052734,378.299103 1304.052734,384.905579 1304.052734,391.655457 
	C1306.946167,391.655457 1309.182617,391.655457 1311.155273,391.655457 
	C1311.155273,378.116180 1311.573853,364.853180 1310.974487,351.636322 
	C1310.685059,345.256897 1305.058472,341.677216 1298.817749,343.371613 
	C1293.837524,344.723785 1289.220703,347.414429 1284.067749,348.933105 
M1605.848267,384.383820 
	C1607.116943,386.419220 1607.939941,389.066223 1609.737305,390.376404 
	C1615.327881,394.451721 1621.361450,392.878418 1627.245972,390.711548 
	C1630.502808,389.512268 1630.756348,387.643890 1628.754883,385.555481 
	C1624.887939,385.732849 1621.331665,386.414825 1617.989014,385.844604 
	C1616.138184,385.528839 1613.277344,383.175995 1613.212158,381.641785 
	C1612.782715,371.546661 1612.990479,361.424377 1612.990479,351.620056 
	C1618.170044,349.032898 1627.170654,355.355316 1627.836060,343.953491 
	C1622.852173,343.953491 1618.078125,343.953491 1612.979004,343.953491 
	C1612.979004,338.160065 1612.979004,332.719879 1612.979004,326.822357 
	C1609.987915,327.789795 1607.449951,328.610687 1604.807373,329.465363 
	C1604.807373,334.617859 1604.807373,339.229340 1604.807373,343.841583 
	C1602.101074,344.031281 1599.692993,344.200073 1597.429688,344.358734 
	C1597.429688,346.772736 1597.429688,348.678467 1597.429688,350.750793 
	C1600.068481,350.880341 1602.341797,350.991943 1605.052002,351.124969 
	C1605.052002,353.737915 1605.008179,356.195587 1605.059814,358.651245 
	C1605.234497,366.957092 1605.443115,375.262207 1605.848267,384.383820 
M1576.854614,386.039551 
	C1573.729736,385.151642 1570.604736,384.263763 1567.243286,383.308624 
	C1566.568115,384.994110 1565.875488,386.722839 1564.777710,389.463348 
	C1570.310913,390.719727 1575.182251,392.503174 1580.141846,392.797791 
	C1588.148071,393.273346 1594.056641,388.568817 1595.631958,381.648285 
	C1596.981812,375.717865 1593.872681,370.807770 1586.363892,367.048584 
	C1583.285156,365.507202 1580.119263,364.124054 1577.121826,362.439880 
	C1573.864136,360.609406 1572.849731,357.173737 1574.335938,354.294189 
	C1575.376465,352.278168 1578.388672,350.774628 1580.809692,350.131256 
	C1582.855469,349.587616 1585.524292,350.139191 1587.552612,351.033508 
	C1592.127075,353.050629 1593.390503,351.014099 1593.782349,346.112244 
	C1589.612671,345.082123 1585.548828,343.552399 1581.379028,343.165253 
	C1574.260620,342.504333 1568.212891,347.104828 1566.410034,353.749237 
	C1564.878906,359.392151 1567.736816,364.433014 1574.549561,367.956299 
	C1577.633911,369.551422 1581.059692,370.652771 1583.798218,372.692780 
	C1585.687500,374.100189 1587.560059,376.608612 1587.871338,378.843506 
	C1588.645386,384.401215 1586.009644,386.044403 1576.854614,386.039551 
M1730.051025,369.500488 
	C1730.051025,376.788300 1730.051025,384.076111 1730.051025,391.542114 
	C1732.930786,391.542114 1735.278809,391.542114 1737.947266,391.542114 
	C1737.947266,376.497711 1738.004272,361.856445 1737.829712,347.217896 
	C1737.817017,346.153290 1736.191406,344.277618 1735.202759,344.198853 
	C1730.961670,343.860992 1726.678345,344.054749 1722.374512,344.054749 
	C1722.374512,346.669403 1722.374512,348.576721 1722.374512,350.711456 
	C1725.070312,350.884583 1727.463135,351.038269 1730.051025,351.204468 
	C1730.051025,357.209564 1730.051025,362.855316 1730.051025,369.500488 
M631.136719,184.528366 
	C629.119690,185.277298 626.995483,185.828827 625.123413,186.844864 
	C623.885803,187.516632 622.135071,188.833923 622.109009,189.898773 
	C621.875000,199.471771 621.972412,209.052872 621.972412,219.101761 
	C626.100037,217.588943 629.582458,216.110046 633.189209,215.056412 
	C635.943237,214.251877 636.294312,212.676834 635.865356,210.211365 
	C635.071045,205.646729 634.494690,201.044479 633.803040,196.461594 
	C633.188049,192.386429 632.539856,188.316284 631.136719,184.528366 
M1736.369385,332.031403 
	C1739.491699,330.168274 1741.130005,327.649780 1738.854614,324.258118 
	C1736.937500,321.400452 1733.939575,319.676941 1730.865967,322.064209 
	C1729.127808,323.414154 1727.210083,326.495605 1727.632568,328.254272 
	C1728.502686,331.876007 1731.456909,333.948822 1736.369385,332.031403 
z"/>
<path fill="#D24B44" opacity="1.000000" stroke="none" 
	d="
M1208.187866,308.839020 
	C1184.819946,330.777710 1161.952148,353.165375 1145.555908,381.125214 
	C1140.159546,390.327209 1136.040405,400.057373 1134.430786,410.746826 
	C1133.154663,419.220490 1134.519287,423.140564 1142.802856,424.889374 
	C1154.566895,427.372986 1166.640015,429.243958 1178.633179,429.593597 
	C1197.248047,430.136292 1215.931274,429.671509 1234.541260,428.744202 
	C1266.774170,427.138184 1298.968628,424.778168 1331.187622,422.876740 
	C1350.765259,421.721405 1370.356689,420.790009 1389.945557,419.834198 
	C1427.229126,418.014954 1464.527588,417.587128 1501.794434,419.926788 
	C1522.357300,421.217712 1542.983643,422.474640 1563.378418,425.242737 
	C1595.828613,429.647125 1627.803467,436.569855 1658.600464,448.106384 
	C1660.734497,448.905762 1662.755981,450.005768 1665.002319,451.045868 
	C1661.449097,459.958679 1658.025146,468.547333 1654.556274,477.248718 
	C1645.085815,474.103821 1635.935059,470.796509 1626.624634,468.025909 
	C1602.769409,460.927032 1578.424927,455.805878 1553.696411,453.353851 
	C1528.252686,450.830902 1502.693115,449.080322 1477.142090,448.151062 
	C1453.871338,447.304749 1430.518188,447.324951 1407.247559,448.197296 
	C1372.163330,449.512482 1337.117798,451.872437 1302.058960,453.847412 
	C1286.104858,454.746185 1270.158203,455.779236 1254.209839,456.776825 
	C1252.967896,456.854492 1251.738525,457.133026 1250.510742,457.619690 
	C1421.470581,468.950317 1591.623901,487.542053 1761.665527,511.444489 
	C1761.061890,516.329529 1760.529907,521.043640 1759.884399,525.742188 
	C1759.253296,530.336548 1758.506470,534.915039 1757.733521,540.006226 
	C1751.275269,539.166626 1744.970459,538.351501 1738.666992,537.526794 
	C1711.691162,533.997498 1684.719971,530.431396 1657.738647,526.944458 
	C1634.712769,523.968628 1611.690674,520.953552 1588.638184,518.197205 
	C1569.717163,515.934937 1550.751343,514.049255 1531.809814,511.957672 
	C1507.200928,509.240234 1482.613647,506.314819 1457.984619,503.796692 
	C1436.998047,501.650970 1415.967407,499.934723 1394.952881,498.065430 
	C1374.580322,496.253265 1354.218384,494.293091 1333.824951,492.752686 
	C1309.174072,490.890656 1284.497314,489.365540 1259.827393,487.762451 
	C1239.426514,486.436798 1219.027710,485.048370 1198.612671,483.982117 
	C1176.025024,482.802460 1153.422485,481.896759 1130.822021,480.982300 
	C1102.380371,479.831421 1073.936035,478.741302 1045.489014,477.733002 
	C1035.333740,477.373047 1025.167358,477.174744 1015.005859,477.164948 
	C958.849792,477.110748 902.692627,476.939667 846.538086,477.227356 
	C821.743774,477.354370 796.952026,478.384552 772.164124,479.164459 
	C756.209290,479.666443 740.253357,480.275574 724.315857,481.159485 
	C690.446960,483.037842 656.568909,484.832794 622.733826,487.217896 
	C592.916748,489.319672 563.125916,491.897583 533.372986,494.777252 
	C501.633484,497.849243 469.920135,501.252014 438.253998,505.005035 
	C404.088196,509.054382 369.905701,513.109619 335.883850,518.189636 
	C291.347046,524.839722 246.792206,531.603760 202.552002,539.946289 
	C147.120972,550.399048 91.999466,562.494202 36.749916,573.907288 
	C31.269669,575.039429 25.828054,576.358582 19.915579,577.693054 
	C17.712172,568.546082 15.514307,559.422058 13.157925,549.640015 
	C381.005127,463.290009 753.894348,436.006775 1131.051392,451.320435 
	C1117.320557,444.805328 1106.571533,435.971924 1105.181763,419.454437 
	C1098.322632,422.057617 1091.885864,424.802795 1085.257080,426.957520 
	C1067.938843,432.587006 1050.005005,433.283417 1032.022095,432.648376 
	C1017.885620,432.149139 1003.767090,431.092468 989.647644,430.175049 
	C970.953674,428.960419 956.218323,419.707184 944.422302,406.033630 
	C937.657776,398.192291 932.464600,388.958466 926.874573,380.154297 
	C923.340454,374.588196 919.208374,372.531830 912.449768,375.546906 
	C903.836182,379.389496 895.534790,383.980286 887.287354,388.586273 
	C861.844727,402.795349 836.557739,417.284210 811.056824,431.387024 
	C804.798401,434.848145 797.876770,436.898041 790.471497,435.956085 
	C778.681580,434.456360 772.413757,425.979767 774.362976,414.180847 
	C774.465698,413.558716 774.565674,412.936096 774.734985,411.895630 
	C765.373169,416.634979 756.474426,421.348663 747.398621,425.692657 
	C725.933289,435.966736 703.500061,443.086090 679.539246,443.412811 
	C670.008301,443.542755 660.245483,442.363190 650.946960,440.221741 
	C636.329590,436.855347 627.081543,424.033234 625.646851,407.153534 
	C616.531677,409.568451 607.516663,412.231628 598.371277,414.325775 
	C575.246155,419.621033 552.087036,421.165070 528.942444,414.173187 
	C527.392456,413.704926 525.251099,413.835205 523.814148,414.550110 
	C484.408234,434.156128 441.894745,444.279144 399.662354,455.187775 
	C374.250336,461.751678 348.525269,466.897430 322.262054,468.535858 
	C307.644653,469.447754 292.960602,469.554474 279.144257,463.503815 
	C261.364594,455.717590 254.706070,440.532166 260.714050,421.801270 
	C265.365295,407.300171 274.243195,395.327637 283.772614,383.765198 
	C284.388123,383.018402 284.947968,382.225677 284.898407,382.290924 
	C213.892181,393.610443 142.291260,405.024780 70.134315,416.527771 
	C68.777763,405.948944 67.600082,396.764984 66.342049,386.954468 
	C73.072578,385.975891 79.742912,385.007385 86.412827,384.035980 
	C104.304825,381.430267 122.212486,378.926697 140.084641,376.191223 
	C163.776535,372.565033 187.504120,369.116089 211.101685,364.942566 
	C245.555374,358.849030 279.907898,352.183044 314.301117,345.748138 
	C317.548401,345.140594 320.751404,344.117188 324.021515,343.843597 
	C334.981415,342.926666 342.057861,334.899994 350.550110,329.544159 
	C360.216248,323.447937 369.534088,316.801575 379.114838,310.565674 
	C380.686798,309.542480 382.829407,308.938019 384.713867,308.924622 
	C401.379333,308.805878 418.046051,308.861786 434.712372,308.885040 
	C435.152039,308.885651 435.591400,309.101013 436.851837,309.431519 
	C430.023804,313.516235 423.760010,317.263397 417.496246,321.010559 
	C417.545837,321.283081 417.595459,321.555603 417.645081,321.828125 
	C418.786133,321.750702 419.983246,321.871613 421.060181,321.567322 
	C462.977997,309.721405 504.885681,297.839630 546.786926,285.935242 
	C547.559998,285.715637 548.239624,285.166840 549.589478,284.457886 
	C551.197632,283.984741 552.232788,283.974884 553.152710,283.644196 
	C574.077698,276.121674 594.989990,268.564117 615.904724,261.013123 
	C628.796570,255.606674 641.688416,250.200211 655.199768,244.472870 
	C673.792480,234.537689 691.926880,225.207275 709.646484,215.146378 
	C715.406799,211.875763 720.083008,206.695892 725.255005,202.389282 
	C727.751282,199.606171 730.708557,197.107010 732.637817,193.974701 
	C735.675537,189.042786 735.033508,188.087662 729.397339,186.674530 
	C729.397339,177.250687 729.397339,167.825439 729.397339,158.425339 
	C749.991455,157.470901 770.779175,175.828674 761.227478,201.187820 
	C756.347107,214.145035 747.004944,223.299835 735.774292,231.737640 
	C730.143982,235.708435 725.187988,239.650024 719.738220,242.712921 
	C704.486328,251.284729 689.030457,259.493378 673.655090,267.845367 
	C661.493896,272.984589 649.337341,278.134735 637.169800,283.258698 
	C630.313721,286.145874 623.439453,288.990051 615.867615,292.038147 
	C606.025391,295.729218 596.888916,299.235718 587.752502,302.742188 
	C581.615356,304.626923 575.471252,306.489227 569.342285,308.400299 
	C545.640198,315.790955 522.115967,323.820740 498.204010,330.453522 
	C461.016174,340.768738 423.589752,350.230469 386.209930,359.841858 
	C377.076355,362.190308 367.733734,363.728546 358.482147,365.614532 
	C349.298859,367.486603 341.075653,370.849884 333.731232,377.198822 
	C319.912201,389.144745 305.501648,400.414642 295.547516,416.080017 
	C293.066040,419.985199 290.899200,424.151611 289.099030,428.413910 
	C286.481750,434.610748 287.287048,437.054230 293.786896,437.913025 
	C303.444092,439.188995 313.371185,440.167053 323.030365,439.384033 
	C367.478363,435.780914 409.985260,423.076202 452.570312,410.788452 
	C471.540009,405.314850 490.030426,398.714203 507.755554,389.985779 
	C510.533722,388.617676 512.289185,387.165131 513.447876,383.863159 
	C516.231567,375.930573 522.529419,370.598999 529.260986,365.849976 
	C546.727905,353.527283 566.131958,345.344452 586.411560,339.021362 
	C607.829407,332.343384 629.673462,327.800018 652.095886,326.484375 
	C664.610779,325.750061 676.964050,326.548309 688.738708,331.688904 
	C705.620483,339.059204 707.956665,353.011047 705.931641,366.463287 
	C705.776611,367.493164 704.455322,368.538025 703.436829,369.217102 
	C695.443420,374.546997 687.133057,379.441589 679.437439,385.165558 
	C672.953064,389.988647 667.120605,395.697937 661.099670,401.126038 
	C659.899292,402.208191 659.040894,403.728973 658.217346,405.158478 
	C655.839172,409.286316 657.133606,412.322968 661.801147,413.060638 
	C675.041687,415.153137 688.211548,414.622406 701.285522,411.623840 
	C725.203186,406.138214 746.605591,394.906891 767.188049,382.108215 
	C791.053528,367.268036 813.385437,350.274384 834.156555,331.324615 
	C852.752319,314.359406 871.139832,297.164673 889.517639,279.962646 
	C895.463013,274.397644 902.346863,272.010620 910.020508,274.439514 
	C917.206238,276.713928 922.018433,282.002716 923.613586,289.609222 
	C925.260681,297.463379 921.133545,302.853302 915.688293,307.779358 
	C896.000916,325.589264 876.344299,343.434418 856.809875,361.411560 
	C849.394592,368.235626 842.330200,375.441620 835.135071,382.503387 
	C833.971313,383.645538 832.960815,384.943909 832.453064,387.059021 
	C834.378174,386.040558 836.330200,385.069580 838.224243,383.996307 
	C858.219482,372.666046 878.003357,360.937317 898.310791,350.198242 
	C904.840271,346.745270 912.629578,345.121033 920.044312,344.022675 
	C931.776550,342.284790 940.633728,347.917969 946.889648,357.540436 
	C950.672363,363.358612 953.718140,369.650574 957.336426,375.582367 
	C962.282654,383.691193 968.632629,390.531036 976.455017,396.006378 
	C977.915710,390.141937 978.817505,384.412170 980.776733,379.070282 
	C985.701050,365.644043 995.782654,356.263824 1006.839417,347.913025 
	C1029.804077,330.568604 1055.871460,320.332855 1084.159546,316.233337 
	C1099.356567,314.031036 1114.851562,314.182892 1128.972656,321.675964 
	C1134.583496,324.653229 1139.450439,329.032379 1144.649048,332.768219 
	C1152.946533,323.745422 1161.679565,314.249023 1170.926758,304.345520 
	C1180.396240,295.567413 1189.266846,287.103149 1198.331665,278.852570 
	C1206.773193,271.169312 1215.421631,263.713440 1224.298584,256.030334 
	C1237.523438,245.567535 1250.428467,235.231857 1263.440796,224.726837 
	C1263.692871,224.332062 1263.857056,224.121643 1264.030762,223.966095 
	C1264.021240,224.005951 1263.939941,223.995071 1264.295410,224.032486 
	C1280.454346,212.602951 1296.191284,201.042847 1312.081543,189.697418 
	C1325.683960,179.985489 1339.461914,170.519547 1353.162231,160.944824 
	C1362.375977,154.963852 1371.562134,148.940033 1380.808350,143.009781 
	C1410.307129,124.089714 1439.833862,105.213028 1469.331543,86.291069 
	C1471.988281,84.586800 1473.791260,84.377396 1475.648804,87.654449 
	C1479.566772,94.566467 1483.936157,101.222717 1488.424805,108.475967 
	C1479.517700,114.069420 1470.671753,119.448441 1462.003052,125.099022 
	C1426.208374,148.431244 1390.462036,171.837738 1354.729492,195.264999 
	C1353.557373,196.033432 1352.725342,197.320221 1351.141113,198.555313 
	C1340.322388,205.799011 1329.986572,212.698273 1319.891724,219.933975 
	C1281.166504,247.691299 1243.505981,276.796234 1208.187866,308.839020 
M1097.469360,344.731079 
	C1077.025146,344.904388 1058.394409,351.590057 1040.571045,360.883331 
	C1029.351562,366.733276 1018.456543,373.226074 1011.057983,383.939453 
	C1004.630615,393.246368 1009.332031,402.685303 1020.717163,402.865723 
	C1033.009155,403.060608 1045.384277,403.158417 1057.599365,401.996307 
	C1084.856689,399.403229 1106.077026,386.458008 1120.945801,363.177704 
	C1123.807983,358.696289 1122.795654,355.547089 1119.811646,352.113464 
	C1114.100342,345.541443 1106.358887,344.888672 1097.469360,344.731079 
M662.217834,355.751343 
	C654.089233,356.202698 645.861755,356.004211 637.849792,357.222534 
	C609.401672,361.548462 582.081299,370.198883 555.101074,379.955566 
	C550.527832,381.609344 546.184692,383.899658 540.451233,386.472015 
	C543.077515,387.347412 544.112793,387.847717 545.201538,388.031677 
	C557.791443,390.159393 570.366028,389.779968 582.909546,387.628143 
	C604.950928,383.846893 625.831726,376.358673 646.253967,367.505798 
	C653.716858,364.270721 660.968689,360.549072 668.316833,357.049377 
	C668.195068,356.711121 668.073303,356.372833 667.951538,356.034546 
	C666.339966,355.950317 664.728455,355.866089 662.217834,355.751343 
z"/>
<path fill="#211701" opacity="1.000000" stroke="none" 
	d="
M615.915466,260.543579 
	C594.989990,268.564117 574.077698,276.121674 553.152710,283.644196 
	C552.232788,283.974884 551.197632,283.984741 549.854492,284.187500 
	C536.339417,275.736481 527.288513,263.323883 517.941895,251.194000 
	C497.187866,224.259659 476.438141,197.321976 455.668121,170.399979 
	C454.872192,169.368286 453.883636,168.485214 452.297913,166.805115 
	C452.178497,169.179276 452.035187,170.707657 452.034515,172.236099 
	C452.021820,200.901123 452.279297,229.569290 451.924103,258.229889 
	C451.734894,273.498932 456.421661,285.755005 469.798553,294.064331 
	C473.105408,296.118439 476.019287,298.805206 479.860901,301.779572 
	C343.313843,301.779572 207.761627,301.779572 71.275375,301.779572 
	C75.981392,297.999756 79.906776,294.272858 84.370674,291.375732 
	C95.151436,284.378967 98.718262,273.896790 98.857903,261.952209 
	C99.115059,239.956421 98.956535,217.955704 98.959473,195.957031 
	C98.964149,160.959045 99.030518,125.960747 98.879341,90.963402 
	C98.857315,85.863441 97.943985,80.741714 97.145210,75.677032 
	C96.078918,68.916214 92.202690,63.845848 86.863480,59.767757 
	C81.725235,55.843159 76.617661,51.878399 70.904984,47.475273 
	C116.445412,47.475273 161.356323,47.475273 206.741043,47.475273 
	C202.058075,51.191059 197.822769,55.063389 193.097488,58.196835 
	C182.530060,65.204361 179.085754,75.517670 179.054810,87.373413 
	C178.950836,127.204193 179.005707,167.035385 179.000748,206.866425 
	C178.999146,219.699020 178.949432,232.532104 179.073868,245.363495 
	C179.087387,246.758972 179.965363,249.264847 180.694046,249.361664 
	C188.037399,250.337418 195.565750,252.125870 202.784332,251.334503 
	C214.498947,250.050247 222.162094,241.662277 228.774673,232.605362 
	C239.890839,217.380157 246.879959,200.050995 253.894073,182.741486 
	C258.552094,171.246460 263.283478,159.781082 268.016235,148.316544 
	C268.614014,146.868515 269.419891,145.506378 270.590454,143.193283 
	C268.256744,194.407074 265.973389,244.515701 263.677185,294.905518 
	C282.295563,288.633850 288.274170,280.621033 288.391296,259.090668 
	C288.699432,202.429169 288.494110,145.764786 288.438446,89.101616 
	C288.435181,85.788071 288.143219,82.445122 287.645874,79.167404 
	C286.251465,69.977501 281.493927,62.954037 273.804871,57.703953 
	C269.427368,54.714996 265.383728,51.237049 260.420258,47.381596 
	C262.621857,47.243217 263.986053,47.082722 265.350250,47.082466 
	C330.346527,47.070164 395.342773,47.081745 460.339020,47.037350 
	C463.115112,47.035454 464.968933,47.493065 466.921967,50.071095 
	C499.064728,92.499893 531.402954,134.780624 563.704041,177.089447 
	C564.401062,178.002472 565.177124,178.855164 566.539185,180.478180 
	C566.674377,178.315109 566.831970,176.966385 566.832153,175.617645 
	C566.835754,147.290726 566.931641,118.962959 566.714661,90.637611 
	C566.673157,85.215431 565.708923,79.735939 564.603943,74.400185 
	C562.534912,64.408707 554.090637,59.633606 546.963501,53.850143 
	C544.441406,51.803513 541.829224,49.867943 538.540710,47.327438 
	C574.060364,47.327438 608.617371,47.327438 643.747803,47.327438 
	C639.057861,51.036736 634.883850,54.930157 630.154968,57.956852 
	C619.759766,64.610336 616.201904,74.557724 615.989624,86.082321 
	C615.741028,99.576981 615.928833,113.079697 615.928528,126.578918 
	C615.927490,171.077301 615.926941,215.575684 615.915466,260.543579 
M368.769257,163.499893 
	C368.772980,195.644501 368.847870,227.789337 368.747375,259.933624 
	C368.703644,273.928864 372.632233,285.704926 385.679871,292.735321 
	C398.783356,285.941650 402.710480,274.056488 402.730743,260.325623 
	C402.808197,207.861969 402.889221,155.397598 402.685486,102.934586 
	C402.617218,85.353500 396.303864,70.314293 382.305969,58.993530 
	C376.433350,62.506588 372.613678,67.538147 371.058868,73.841660 
	C369.759094,79.111267 368.927185,84.631714 368.875732,90.050461 
	C368.646545,114.198433 368.771942,138.349762 368.769257,163.499893 
z"/>
<path fill="#211701" opacity="1.000000" stroke="none" 
	d="
M725.110840,201.961426 
	C720.083008,206.695892 715.406799,211.875763 709.646484,215.146378 
	C691.926880,225.207275 673.792480,234.537689 655.462769,244.252594 
	C647.122864,231.325287 642.333923,217.022079 640.233398,202.074722 
	C636.501465,175.517731 638.661865,149.273926 648.131348,124.035210 
	C658.643188,96.018112 677.015076,74.364372 703.051331,59.493324 
	C728.848633,44.758762 756.930237,38.939022 786.307190,40.796227 
	C802.093933,41.794262 817.718384,45.269997 833.442261,47.437836 
	C836.122498,47.807358 838.934875,47.093193 841.686401,47.090454 
	C872.185852,47.060104 902.685730,47.140842 933.184326,46.980747 
	C936.871948,46.961391 938.677734,47.777641 939.948181,51.515656 
	C956.904297,101.406921 974.046570,151.234940 991.158875,201.073090 
	C991.517151,202.116562 992.069458,203.093414 993.029907,205.189850 
	C995.763367,196.842422 998.251770,189.445923 1000.609253,182.007919 
	C1009.642517,153.506882 1018.698425,125.012650 1027.585693,96.466019 
	C1029.349854,90.799675 1030.521118,84.937576 1031.758301,79.121597 
	C1032.938354,73.573738 1030.997803,68.812721 1026.798706,65.305244 
	C1019.552917,59.252728 1012.025635,53.537128 1004.338135,47.460148 
	C1035.281494,47.460148 1066.085083,47.460148 1097.484863,47.460148 
	C1068.060913,134.611465 1038.660278,221.694061 1009.024353,309.473145 
	C997.299133,305.082153 985.886841,300.897278 974.543030,296.534515 
	C963.777405,292.394043 953.676270,287.131012 944.721802,279.648773 
	C933.672302,270.415894 926.888733,258.417847 922.052307,245.294647 
	C902.240845,191.536896 882.715149,137.673889 863.009460,83.877045 
	C859.586243,74.531631 855.612122,65.431374 847.815918,58.687443 
	C847.496399,58.411072 847.026672,58.308250 846.169800,57.914566 
	C846.169800,78.658302 846.169800,99.037361 846.169800,120.128716 
	C839.569519,115.173447 833.791138,110.286476 827.490845,106.205086 
	C806.115601,92.357956 783.214478,88.732124 758.804321,96.926025 
	C742.728455,102.322319 733.708984,114.504341 728.143921,129.646255 
	C721.642090,147.337234 721.129822,165.769028 722.533997,184.303375 
	C722.971191,190.075073 724.135193,195.791718 725.110840,201.961426 
z"/>
<path fill="#211701" opacity="1.000000" stroke="none" 
	d="
M1223.979004,256.157471 
	C1215.421631,263.713440 1206.773193,271.169312 1198.331665,278.852570 
	C1189.266846,287.103149 1180.396240,295.567413 1171.128174,304.105560 
	C1152.407715,299.913208 1135.608765,292.196899 1120.841553,280.266235 
	C1094.601318,259.066376 1080.092407,231.284805 1074.924561,198.283066 
	C1070.432007,169.594055 1074.624390,142.077698 1087.076538,115.990349 
	C1098.369995,92.330368 1115.338013,73.399193 1138.027588,60.141079 
	C1163.541260,45.232784 1191.471069,39.619202 1220.824829,40.518417 
	C1243.869873,41.224365 1266.036743,45.637615 1286.608887,56.525547 
	C1320.462402,74.442650 1341.115234,102.496758 1349.867798,139.498444 
	C1351.460449,146.231415 1352.026978,153.207108 1353.114746,160.507767 
	C1339.461914,170.519547 1325.683960,179.985489 1312.081543,189.697418 
	C1296.191284,201.042847 1280.454346,212.602951 1264.289062,223.644928 
	C1264.964722,219.893341 1266.278564,216.625168 1266.996582,213.230927 
	C1272.943237,185.119095 1270.461914,157.605499 1260.172974,130.896713 
	C1254.826660,117.018616 1246.711914,104.878174 1232.977539,97.897156 
	C1207.530640,84.962776 1175.681152,97.324471 1164.791016,125.171028 
	C1151.986816,157.912323 1154.247070,190.693024 1168.212280,222.627701 
	C1173.947632,235.743073 1183.702637,245.480453 1196.750488,251.834244 
	C1205.447998,256.069611 1214.656860,256.278687 1223.979004,256.157471 
z"/>
<path fill="#211701" opacity="1.000000" stroke="none" 
	d="
M673.763794,268.202545 
	C689.030457,259.493378 704.486328,251.284729 719.738220,242.712921 
	C725.187988,239.650024 730.143982,235.708435 735.642151,232.046127 
	C741.505188,239.604156 747.520142,246.632477 756.209106,251.181198 
	C764.231079,255.380707 772.575989,256.527924 781.376892,256.101776 
	C783.987427,255.975372 786.609253,256.082275 789.629456,256.082275 
	C789.629456,244.296112 789.629456,233.001312 789.629456,221.706512 
	C789.629456,215.211136 789.178772,208.677658 789.723877,202.228363 
	C790.837952,189.047089 785.242737,179.597641 774.697083,172.378128 
	C771.428833,170.140732 768.518982,167.379990 764.925964,164.433167 
	C798.803772,164.433167 832.112000,164.433167 865.776001,164.433167 
	C865.856323,165.404556 866.026855,166.507172 866.027222,167.609848 
	C866.040894,208.081024 866.023621,248.552216 866.072266,289.023346 
	C866.075500,291.722504 865.816345,293.387756 862.589600,294.413239 
	C840.478027,301.440399 818.070068,306.859833 794.836670,308.417511 
	C764.749268,310.434662 735.722046,306.356750 708.392395,293.076569 
	C695.561829,286.841888 683.644470,279.173157 673.763794,268.202545 
z"/>
<path fill="#221702" opacity="1.000000" stroke="none" 
	d="
M1208.612793,308.893066 
	C1243.505981,276.796234 1281.166504,247.691299 1319.891724,219.933975 
	C1329.986572,212.698273 1340.322388,205.799011 1350.930420,198.793060 
	C1348.328857,217.899246 1341.313110,235.343216 1330.357178,251.213074 
	C1309.451050,281.496185 1280.141479,298.844879 1244.554443,305.743439 
	C1232.944824,307.993988 1220.889404,307.944641 1208.612793,308.893066 
z"/>
<path fill="#D34D45" opacity="1.000000" stroke="none" 
	d="
M490.599731,280.547791 
	C487.619080,282.099823 484.958923,283.459167 482.294464,284.809998 
	C474.979431,288.518494 470.303772,287.516022 465.547028,280.916809 
	C463.722168,278.385101 462.191101,275.604614 460.820679,272.793854 
	C459.685486,270.465485 458.982971,267.926147 457.941254,265.076752 
	C472.568207,257.590057 486.979919,250.213531 501.875732,242.589233 
	C507.739746,250.227158 513.565613,257.815399 519.926941,266.101074 
	C509.995209,270.979889 500.456726,275.665558 490.599731,280.547791 
z"/>
<path fill="#251C08" opacity="1.000000" stroke="none" 
	d="
M1325.412842,405.482056 
	C1326.186035,402.975037 1326.801880,402.009766 1329.692749,402.918732 
	C1333.884277,404.236633 1338.423340,404.775177 1342.842407,404.955505 
	C1347.680176,405.152924 1350.695190,402.194153 1350.981201,397.483337 
	C1351.220703,393.541595 1351.030396,389.573730 1351.030396,384.500671 
	C1348.625732,386.053772 1347.470337,386.794556 1346.320312,387.543488 
	C1336.310303,394.062469 1325.345581,389.951935 1323.318848,378.160126 
	C1322.222046,371.778168 1322.410889,364.863892 1323.570190,358.470917 
	C1325.907837,345.580322 1337.580688,338.352600 1352.291992,347.056915 
	C1353.177002,345.812683 1354.084473,344.536865 1355.203491,342.963623 
	C1357.087036,344.111664 1358.852173,345.187500 1359.662842,345.681580 
	C1359.048950,351.556244 1358.037842,356.850037 1358.039673,362.143524 
	C1358.043213,372.609772 1358.467651,383.082611 1358.978027,393.540039 
	C1359.491943,404.067139 1353.390259,411.469666 1342.471558,411.746155 
	C1337.509888,411.871796 1332.462280,410.071106 1327.534912,408.823120 
	C1326.572876,408.579437 1325.986084,406.854523 1325.412842,405.482056 
M1349.991089,355.879028 
	C1349.733154,354.645416 1349.893677,352.991821 1349.147461,352.248260 
	C1345.129150,348.244354 1335.543335,349.419983 1332.879761,354.535736 
	C1328.573975,362.805420 1328.868042,371.564575 1332.128418,380.083252 
	C1333.699341,384.187592 1337.642212,384.905151 1341.379395,383.489349 
	C1345.095581,382.081543 1350.225708,381.915558 1350.034424,375.744476 
	C1349.838867,369.435730 1349.991211,363.116150 1349.991089,355.879028 
z"/>
<path fill="#251C08" opacity="1.000000" stroke="none" 
	d="
M1465.684082,410.484863 
	C1463.211060,409.437775 1461.091431,408.601440 1458.666748,407.644684 
	C1459.485107,405.625214 1460.142334,404.003174 1460.555054,402.984802 
	C1466.332275,403.713257 1471.641724,404.704865 1476.986328,404.958618 
	C1481.571411,405.176270 1484.526245,402.427734 1484.934448,397.838959 
	C1485.297974,393.751984 1485.010742,389.607117 1485.010742,384.421295 
	C1482.572632,386.047485 1481.401001,386.849457 1480.209473,387.620453 
	C1470.219116,394.084564 1459.234375,389.827118 1457.270996,378.041687 
	C1456.230835,371.797668 1456.293701,365.053833 1457.441040,358.827240 
	C1459.824585,345.891724 1471.017456,338.203613 1486.333740,347.023376 
	C1487.233398,345.765106 1488.152100,344.480072 1489.233276,342.967896 
	C1491.148071,344.151947 1492.916016,345.245270 1493.836182,345.814240 
	C1493.160767,351.141144 1492.042847,355.944214 1492.045654,360.746613 
	C1492.052124,371.709717 1492.465576,382.679108 1492.977905,393.633606 
	C1493.539795,405.650513 1484.102417,413.866119 1471.921021,411.703522 
	C1469.961914,411.355713 1467.998657,411.030975 1465.684082,410.484863 
M1468.757080,383.053192 
	C1469.531616,383.342896 1470.285889,383.799164 1471.083862,383.896454 
	C1478.664795,384.820892 1483.991211,380.143982 1483.991211,372.623779 
	C1483.991211,366.965759 1484.046509,361.306732 1483.946411,355.650482 
	C1483.925171,354.451477 1483.718262,352.841949 1482.944824,352.139618 
	C1478.946045,348.508667 1470.324585,349.554749 1467.169922,353.856659 
	C1462.469482,360.266510 1462.957764,376.286316 1468.757080,383.053192 
z"/>
<path fill="#251C08" opacity="1.000000" stroke="none" 
	d="
M1716.722656,387.833252 
	C1717.049927,390.643677 1717.049927,390.643677 1711.533325,393.136169 
	C1710.463623,391.536560 1709.340210,389.856720 1708.275146,388.264038 
	C1705.218750,389.540192 1702.282227,391.111786 1699.152344,392.005554 
	C1691.121704,394.298798 1683.917847,390.567810 1681.251099,382.451660 
	C1678.165527,373.060272 1678.235962,363.424133 1681.418579,354.096954 
	C1684.606934,344.753357 1693.878540,340.903564 1703.118286,344.511963 
	C1704.295898,344.971863 1705.442505,345.511566 1707.057007,346.210724 
	C1707.057007,340.450287 1707.057007,335.159668 1707.057007,329.869019 
	C1707.057007,322.755066 1707.057007,322.755066 1714.704834,321.172821 
	C1714.786743,322.982727 1714.931152,324.709351 1714.932739,326.436066 
	C1714.949463,344.236084 1714.879150,362.036621 1715.014160,379.835602 
	C1715.033447,382.392151 1716.011108,384.941467 1716.722656,387.833252 
M1703.479736,382.980896 
	C1706.215210,381.505463 1707.235474,379.396637 1707.083130,376.139191 
	C1706.773438,369.516296 1707.017212,362.868530 1706.964111,356.231567 
	C1706.955322,355.140533 1706.854370,353.250793 1706.357422,353.090668 
	C1702.661255,351.899017 1698.671387,349.906586 1695.142334,350.470856 
	C1692.506104,350.892334 1688.935425,354.452515 1688.390137,357.143738 
	C1687.159180,363.217865 1686.864380,369.681366 1687.426392,375.874146 
	C1688.361206,386.176117 1693.619629,388.460022 1703.479736,382.980896 
z"/>
<path fill="#261D09" opacity="1.000000" stroke="none" 
	d="
M1232.309326,386.223114 
	C1231.975952,383.121338 1230.957397,379.907959 1231.440918,376.939240 
	C1232.756226,368.864441 1238.610107,364.212616 1247.847290,363.049469 
	C1250.785889,362.679413 1253.721436,362.284882 1256.578125,361.912048 
	C1259.785645,349.456238 1250.302002,346.881622 1235.918823,352.964264 
	C1235.223267,351.222260 1234.529907,349.485596 1233.739258,347.505371 
	C1240.361206,344.161255 1246.832886,342.174408 1254.001831,343.683960 
	C1261.846069,345.335724 1264.840698,348.940460 1264.927246,357.150055 
	C1265.007935,364.805634 1264.905640,372.463104 1264.973633,380.118958 
	C1264.989624,381.922668 1264.832153,384.040436 1265.677856,385.465485 
	C1268.169067,389.662109 1265.939331,391.427582 1261.944214,393.109894 
	C1260.711304,391.263733 1259.403442,389.305176 1258.101807,387.355927 
	C1246.140991,395.153198 1238.370239,394.823425 1232.549561,386.252014 
	C1232.249023,386.207153 1232.309326,386.223114 1232.309326,386.223114 
M1239.010620,379.370239 
	C1240.500854,384.832550 1243.411255,386.883362 1248.161987,385.818909 
	C1256.005127,384.061584 1258.317627,379.409485 1256.358276,368.774780 
	C1253.630981,369.113525 1250.841675,369.293121 1248.124512,369.834106 
	C1243.291870,370.796356 1239.291016,372.795593 1239.010620,379.370239 
z"/>
<path fill="#261D09" opacity="1.000000" stroke="none" 
	d="
M1435.308105,362.343536 
	C1439.947021,362.745880 1438.973389,359.711792 1439.055908,357.394379 
	C1439.200562,353.335846 1437.481689,350.156921 1433.330322,350.129608 
	C1428.333984,350.096741 1423.330444,351.153564 1417.486328,351.837341 
	C1417.249634,351.261261 1416.537720,349.528809 1415.711914,347.519318 
	C1422.298096,344.194031 1428.755249,342.177307 1435.916748,343.669830 
	C1443.807251,345.314301 1446.827515,348.900665 1446.925049,357.046509 
	C1447.016479,364.695007 1446.908569,372.345734 1446.971436,379.994812 
	C1446.986328,381.799835 1447.089966,383.670776 1447.574219,385.392883 
	C1449.005127,390.481201 1449.087646,390.457977 1443.740479,393.022095 
	C1442.587524,391.174316 1441.404175,389.278076 1440.485962,387.806519 
	C1436.385376,389.522247 1432.496216,391.712677 1428.320068,392.761688 
	C1422.412109,394.245728 1416.018799,390.231049 1414.110107,384.627167 
	C1411.521851,377.027527 1414.089233,369.271027 1421.122070,366.075653 
	C1425.377075,364.142395 1430.270142,363.613281 1435.308105,362.343536 
M1432.974365,369.183960 
	C1430.300537,370.036072 1427.428223,370.518921 1424.998291,371.824799 
	C1421.112549,373.912994 1419.911865,378.407867 1421.724487,382.130676 
	C1423.479736,385.735596 1427.043823,386.886505 1431.544678,385.301819 
	C1438.911865,382.707916 1440.515991,378.880920 1438.349854,369.126282 
	C1436.843750,369.126282 1435.346191,369.126282 1432.974365,369.183960 
z"/>
<path fill="#261D09" opacity="1.000000" stroke="none" 
	d="
M1520.426270,392.831360 
	C1503.658569,390.209686 1500.579712,376.767548 1501.289185,365.159729 
	C1501.536377,361.118561 1502.736816,356.917175 1504.452148,353.231110 
	C1507.740723,346.163757 1516.410400,341.957520 1523.376953,343.330994 
	C1531.802124,344.991974 1536.760376,350.609436 1537.956177,359.848816 
	C1539.392212,370.944244 1539.392090,370.944244 1528.183228,370.944244 
	C1521.882080,370.944244 1515.581055,370.944244 1509.317017,370.944244 
	C1508.189941,383.725800 1516.506226,387.957031 1535.404419,384.451019 
	C1536.023071,385.709351 1536.668457,387.021820 1537.452393,388.616241 
	C1532.239380,391.915192 1526.702026,392.994690 1520.426270,392.831360 
M1526.301514,352.013000 
	C1522.328857,349.282562 1518.181396,349.108673 1514.228027,351.773712 
	C1510.022217,354.608887 1508.991211,358.937134 1509.067139,363.726318 
	C1516.594971,363.726318 1523.656860,363.726318 1531.926392,363.726318 
	C1530.049805,359.539734 1528.472656,356.021271 1526.301514,352.013000 
z"/>
<path fill="#271E0B" opacity="1.000000" stroke="none" 
	d="
M1389.757690,391.969666 
	C1386.890015,392.311127 1384.381348,393.095093 1381.979858,392.845703 
	C1373.826050,391.998962 1370.241699,387.678406 1370.087280,378.593170 
	C1369.931885,369.444061 1370.004517,360.289917 1370.067871,351.138611 
	C1370.119385,343.702209 1368.739014,344.757904 1377.947388,343.339355 
	C1377.947388,350.852264 1377.947266,358.282288 1377.947510,365.712280 
	C1377.947632,370.204956 1377.896606,374.698395 1377.963257,379.190094 
	C1378.028320,383.572144 1380.273926,385.877533 1384.715454,386.062164 
	C1392.943237,386.404175 1397.052734,382.511017 1397.052734,374.294006 
	C1397.052734,366.806213 1397.389160,359.298218 1396.941406,351.837311 
	C1396.610596,346.324615 1397.532471,342.738220 1404.651123,343.524261 
	C1404.738525,344.828766 1404.929688,346.386505 1404.933472,347.944733 
	C1404.959961,358.760376 1404.917969,369.576263 1404.976562,380.391663 
	C1404.986328,382.188507 1404.860962,384.283478 1405.693359,385.722839 
	C1408.196045,390.050476 1405.773926,391.606140 1401.848267,393.014404 
	C1400.811890,391.527405 1399.710571,389.947113 1398.444946,388.130951 
	C1395.745117,389.372589 1392.955444,390.655609 1389.757690,391.969666 
z"/>
<path fill="#271E0B" opacity="1.000000" stroke="none" 
	d="
M1635.061890,346.577026 
	C1637.367310,344.971802 1639.665039,343.812988 1642.947388,342.157654 
	C1642.947388,351.188660 1642.947144,358.951752 1642.947388,366.714844 
	C1642.947510,370.873505 1642.896484,375.032959 1642.962646,379.190582 
	C1643.032349,383.570770 1645.272583,385.876709 1649.712646,386.062134 
	C1657.938232,386.405609 1662.052612,382.511353 1662.052612,374.302887 
	C1662.052612,366.817322 1662.382690,359.312286 1661.942993,351.852661 
	C1661.619507,346.364960 1662.483398,342.726318 1669.643433,343.529663 
	C1669.732300,344.814850 1669.929077,346.368988 1669.932983,347.923553 
	C1669.960083,358.735962 1669.918457,369.548645 1669.975708,380.360809 
	C1669.985229,382.158325 1669.833740,384.274567 1670.680908,385.690552 
	C1673.284790,390.042694 1670.769287,391.568237 1666.909546,393.003937 
	C1665.771240,391.426819 1664.563110,389.753021 1663.708252,388.568604 
	C1659.043701,390.084961 1654.740845,392.467316 1650.314209,392.724731 
	C1640.067505,393.320618 1635.421631,389.476196 1635.115845,378.460999 
	C1634.825073,367.989319 1635.053711,357.503204 1635.061890,346.577026 
z"/>
<path fill="#251C08" opacity="1.000000" stroke="none" 
	d="
M1776.587158,390.844360 
	C1762.648071,396.140991 1750.604980,389.196472 1749.073364,374.645447 
	C1748.432861,368.560760 1748.797607,362.071198 1750.241333,356.139526 
	C1752.182739,348.162811 1759.502441,343.351044 1767.557251,343.059967 
	C1775.050903,342.789154 1781.627930,347.132324 1785.158936,354.471619 
	C1790.783325,366.161896 1788.224609,385.011444 1776.587158,390.844360 
M1756.174683,372.949097 
	C1757.022827,375.613861 1757.549927,378.440613 1758.793701,380.905731 
	C1760.694214,384.672485 1764.148315,386.122040 1768.332397,386.007233 
	C1772.534668,385.891937 1775.855347,384.174072 1777.544189,380.322937 
	C1781.043457,372.343536 1781.131958,364.152893 1777.806885,356.116730 
	C1775.959473,351.651917 1772.195923,349.751801 1767.362305,350.004120 
	C1762.722046,350.246338 1759.098999,352.412842 1758.036743,356.882416 
	C1756.863037,361.819794 1756.690186,366.995026 1756.174683,372.949097 
z"/>
<path fill="#271E0B" opacity="1.000000" stroke="none" 
	d="
M1284.255127,349.222046 
	C1289.220703,347.414429 1293.837524,344.723785 1298.817749,343.371613 
	C1305.058472,341.677216 1310.685059,345.256897 1310.974487,351.636322 
	C1311.573853,364.853180 1311.155273,378.116180 1311.155273,391.655457 
	C1309.182617,391.655457 1306.946167,391.655457 1304.052734,391.655457 
	C1304.052734,384.905579 1304.052734,378.299103 1304.052734,371.692657 
	C1304.052734,367.361389 1303.694214,362.993988 1304.126709,358.706360 
	C1305.055054,349.505005 1298.349243,348.581665 1292.187134,350.947144 
	C1287.065430,352.913269 1284.324585,355.781677 1284.765869,362.041595 
	C1285.452148,371.776947 1284.947266,381.596222 1284.947266,391.658447 
	C1282.176147,391.658447 1279.939575,391.658447 1277.052734,391.658447 
	C1277.052734,380.898743 1277.133911,370.293640 1277.013672,359.690826 
	C1276.963989,355.307220 1276.482300,350.928497 1276.151978,345.854187 
	C1277.061768,345.383179 1278.933838,344.414032 1281.400757,343.136841 
	C1282.361816,345.225616 1283.214844,347.079346 1284.255127,349.222046 
z"/>
<path fill="#271E0B" opacity="1.000000" stroke="none" 
	d="
M1605.743408,383.975708 
	C1605.443115,375.262207 1605.234497,366.957092 1605.059814,358.651245 
	C1605.008179,356.195587 1605.052002,353.737915 1605.052002,351.124969 
	C1602.341797,350.991943 1600.068481,350.880341 1597.429688,350.750793 
	C1597.429688,348.678467 1597.429688,346.772736 1597.429688,344.358734 
	C1599.692993,344.200073 1602.101074,344.031281 1604.807373,343.841583 
	C1604.807373,339.229340 1604.807373,334.617859 1604.807373,329.465363 
	C1607.449951,328.610687 1609.987915,327.789795 1612.979004,326.822357 
	C1612.979004,332.719879 1612.979004,338.160065 1612.979004,343.953491 
	C1618.078125,343.953491 1622.852173,343.953491 1627.836060,343.953491 
	C1627.170654,355.355316 1618.170044,349.032898 1612.990479,351.620056 
	C1612.990479,361.424377 1612.782715,371.546661 1613.212158,381.641785 
	C1613.277344,383.175995 1616.138184,385.528839 1617.989014,385.844604 
	C1621.331665,386.414825 1624.887939,385.732849 1628.754883,385.555481 
	C1630.756348,387.643890 1630.502808,389.512268 1627.245972,390.711548 
	C1621.361450,392.878418 1615.327881,394.451721 1609.737305,390.376404 
	C1607.939941,389.066223 1607.116943,386.419220 1605.743408,383.975708 
z"/>
<path fill="#281F0D" opacity="1.000000" stroke="none" 
	d="
M1577.289062,386.043579 
	C1586.009644,386.044403 1588.645386,384.401215 1587.871338,378.843506 
	C1587.560059,376.608612 1585.687500,374.100189 1583.798218,372.692780 
	C1581.059692,370.652771 1577.633911,369.551422 1574.549561,367.956299 
	C1567.736816,364.433014 1564.878906,359.392151 1566.410034,353.749237 
	C1568.212891,347.104828 1574.260620,342.504333 1581.379028,343.165253 
	C1585.548828,343.552399 1589.612671,345.082123 1593.782349,346.112244 
	C1593.390503,351.014099 1592.127075,353.050629 1587.552612,351.033508 
	C1585.524292,350.139191 1582.855469,349.587616 1580.809692,350.131256 
	C1578.388672,350.774628 1575.376465,352.278168 1574.335938,354.294189 
	C1572.849731,357.173737 1573.864136,360.609406 1577.121826,362.439880 
	C1580.119263,364.124054 1583.285156,365.507202 1586.363892,367.048584 
	C1593.872681,370.807770 1596.981812,375.717865 1595.631958,381.648285 
	C1594.056641,388.568817 1588.148071,393.273346 1580.141846,392.797791 
	C1575.182251,392.503174 1570.310913,390.719727 1564.777710,389.463348 
	C1565.875488,386.722839 1566.568115,384.994110 1567.243286,383.308624 
	C1570.604736,384.263763 1573.729736,385.151642 1577.289062,386.043579 
z"/>
<path fill="#271E0B" opacity="1.000000" stroke="none" 
	d="
M1232.224365,386.188141 
	C1231.460938,391.399353 1229.567383,392.964600 1224.001831,392.945282 
	C1218.764526,392.927094 1214.511475,389.935883 1213.910522,385.393097 
	C1213.369751,381.305115 1213.116089,377.153564 1213.088989,373.027740 
	C1212.994385,358.570190 1212.983276,344.111176 1213.079956,329.653656 
	C1213.132690,321.766022 1211.428467,322.841309 1220.947632,321.243439 
	C1220.947632,323.102325 1220.947754,324.859436 1220.947754,326.616516 
	C1220.947754,343.899841 1220.946777,361.183197 1220.947998,378.466522 
	C1220.948608,386.098907 1221.264771,386.363861 1228.896606,385.869263 
	C1229.747925,385.814087 1230.634277,386.299652 1231.906860,386.378784 
	C1232.309326,386.223114 1232.249023,386.207153 1232.224365,386.188141 
z"/>
<path fill="#271E0C" opacity="1.000000" stroke="none" 
	d="
M1730.051025,369.000793 
	C1730.051025,362.855316 1730.051025,357.209564 1730.051025,351.204468 
	C1727.463135,351.038269 1725.070312,350.884583 1722.374512,350.711456 
	C1722.374512,348.576721 1722.374512,346.669403 1722.374512,344.054749 
	C1726.678345,344.054749 1730.961670,343.860992 1735.202759,344.198853 
	C1736.191406,344.277618 1737.817017,346.153290 1737.829712,347.217896 
	C1738.004272,361.856445 1737.947266,376.497711 1737.947266,391.542114 
	C1735.278809,391.542114 1732.930786,391.542114 1730.051025,391.542114 
	C1730.051025,384.076111 1730.051025,376.788300 1730.051025,369.000793 
z"/>
<path fill="#D34D45" opacity="1.000000" stroke="none" 
	d="
M631.521545,184.386139 
	C632.539856,188.316284 633.188049,192.386429 633.803040,196.461594 
	C634.494690,201.044479 635.071045,205.646729 635.865356,210.211365 
	C636.294312,212.676834 635.943237,214.251877 633.189209,215.056412 
	C629.582458,216.110046 626.100037,217.588943 621.972412,219.101761 
	C621.972412,209.052872 621.875000,199.471771 622.109009,189.898773 
	C622.135071,188.833923 623.885803,187.516632 625.123413,186.844864 
	C626.995483,185.828827 629.119690,185.277298 631.521545,184.386139 
z"/>
<path fill="#261C07" opacity="1.000000" stroke="none" 
	d="
M588.108643,302.931335 
	C596.888916,299.235718 606.025391,295.729218 615.517212,292.153870 
	C615.872681,297.988892 615.872681,303.892792 615.872681,310.498871 
	C606.385742,307.944916 597.425232,305.532684 588.108643,302.931335 
z"/>
<path fill="#2B2310" opacity="1.000000" stroke="none" 
	d="
M1736.008789,332.160950 
	C1731.456909,333.948822 1728.502686,331.876007 1727.632568,328.254272 
	C1727.210083,326.495605 1729.127808,323.414154 1730.865967,322.064209 
	C1733.939575,319.676941 1736.937500,321.400452 1738.854614,324.258118 
	C1741.130005,327.649780 1739.491699,330.168274 1736.008789,332.160950 
z"/>
<path fill="#FEFEFE" opacity="1.000000" stroke="none" 
	d="
M1224.298584,256.030334 
	C1214.656860,256.278687 1205.447998,256.069611 1196.750488,251.834244 
	C1183.702637,245.480453 1173.947632,235.743073 1168.212280,222.627701 
	C1154.247070,190.693024 1151.986816,157.912323 1164.791016,125.171028 
	C1175.681152,97.324471 1207.530640,84.962776 1232.977539,97.897156 
	C1246.711914,104.878174 1254.826660,117.018616 1260.172974,130.896713 
	C1270.461914,157.605499 1272.943237,185.119095 1266.996582,213.230927 
	C1266.278564,216.625168 1264.964722,219.893341 1263.933594,223.607513 
	C1263.939941,223.995071 1264.021240,224.005951 1263.801758,224.020035 
	C1263.322510,224.270508 1263.239624,224.557861 1263.333618,224.896179 
	C1250.428467,235.231857 1237.523438,245.567535 1224.298584,256.030334 
z"/>
<path fill="#FFFEFE" opacity="1.000000" stroke="none" 
	d="
M1097.954590,344.731201 
	C1106.358887,344.888672 1114.100342,345.541443 1119.811646,352.113464 
	C1122.795654,355.547089 1123.807983,358.696289 1120.945801,363.177704 
	C1106.077026,386.458008 1084.856689,399.403229 1057.599365,401.996307 
	C1045.384277,403.158417 1033.009155,403.060608 1020.717163,402.865723 
	C1009.332031,402.685303 1004.630615,393.246368 1011.057983,383.939453 
	C1018.456543,373.226074 1029.351562,366.733276 1040.571045,360.883331 
	C1058.394409,351.590057 1077.025146,344.904388 1097.954590,344.731201 
z"/>
<path fill="#FFFDFD" opacity="1.000000" stroke="none" 
	d="
M662.667358,355.766602 
	C664.728455,355.866089 666.339966,355.950317 667.951538,356.034546 
	C668.073303,356.372833 668.195068,356.711121 668.316833,357.049377 
	C660.968689,360.549072 653.716858,364.270721 646.253967,367.505798 
	C625.831726,376.358673 604.950928,383.846893 582.909546,387.628143 
	C570.366028,389.779968 557.791443,390.159393 545.201538,388.031677 
	C544.112793,387.847717 543.077515,387.347412 540.451233,386.472015 
	C546.184692,383.899658 550.527832,381.609344 555.101074,379.955566 
	C582.081299,370.198883 609.401672,361.548462 637.849792,357.222534 
	C645.861755,356.004211 654.089233,356.202698 662.667358,355.766602 
z"/>
<path fill="#211701" opacity="1.000000" stroke="none" 
	d="
M1263.440796,224.726852 
	C1263.239624,224.557861 1263.322510,224.270508 1263.811279,223.980179 
	C1263.857056,224.121643 1263.692871,224.332062 1263.440796,224.726852 
z"/>
<path fill="#FDFDFD" opacity="1.000000" stroke="none" 
	d="
M368.769226,162.999878 
	C368.771942,138.349762 368.646545,114.198433 368.875732,90.050461 
	C368.927185,84.631714 369.759094,79.111267 371.058868,73.841660 
	C372.613678,67.538147 376.433350,62.506588 382.305969,58.993530 
	C396.303864,70.314293 402.617218,85.353500 402.685486,102.934586 
	C402.889221,155.397598 402.808197,207.861969 402.730743,260.325623 
	C402.710480,274.056488 398.783356,285.941650 385.679871,292.735321 
	C372.632233,285.704926 368.703644,273.928864 368.747375,259.933624 
	C368.847870,227.789337 368.772980,195.644501 368.769226,162.999878 
z"/>
<path fill="#FDFDFD" opacity="1.000000" stroke="none" 
	d="
M1349.991211,356.340179 
	C1349.991211,363.116150 1349.838867,369.435730 1350.034424,375.744476 
	C1350.225708,381.915558 1345.095581,382.081543 1341.379395,383.489349 
	C1337.642212,384.905151 1333.699341,384.187592 1332.128418,380.083252 
	C1328.868042,371.564575 1328.573975,362.805420 1332.879761,354.535736 
	C1335.543335,349.419983 1345.129150,348.244354 1349.147461,352.248260 
	C1349.893677,352.991821 1349.733154,354.645416 1349.991211,356.340179 
z"/>
<path fill="#FDFDFD" opacity="1.000000" stroke="none" 
	d="
M1468.403076,382.873718 
	C1462.957764,376.286316 1462.469482,360.266510 1467.169922,353.856659 
	C1470.324585,349.554749 1478.946045,348.508667 1482.944824,352.139618 
	C1483.718262,352.841949 1483.925171,354.451477 1483.946411,355.650482 
	C1484.046509,361.306732 1483.991211,366.965759 1483.991211,372.623779 
	C1483.991211,380.143982 1478.664795,384.820892 1471.083862,383.896454 
	C1470.285889,383.799164 1469.531616,383.342896 1468.403076,382.873718 
z"/>
<path fill="#FDFDFD" opacity="1.000000" stroke="none" 
	d="
M1703.127441,383.144470 
	C1693.619629,388.460022 1688.361206,386.176117 1687.426392,375.874146 
	C1686.864380,369.681366 1687.159180,363.217865 1688.390137,357.143738 
	C1688.935425,354.452515 1692.506104,350.892334 1695.142334,350.470856 
	C1698.671387,349.906586 1702.661255,351.899017 1706.357422,353.090668 
	C1706.854370,353.250793 1706.955322,355.140533 1706.964111,356.231567 
	C1707.017212,362.868530 1706.773438,369.516296 1707.083130,376.139191 
	C1707.235474,379.396637 1706.215210,381.505463 1703.127441,383.144470 
z"/>
<path fill="#FAFAFA" opacity="1.000000" stroke="none" 
	d="
M1239.008301,378.974243 
	C1239.291016,372.795593 1243.291870,370.796356 1248.124512,369.834106 
	C1250.841675,369.293121 1253.630981,369.113525 1256.358276,368.774780 
	C1258.317627,379.409485 1256.005127,384.061584 1248.161987,385.818909 
	C1243.411255,386.883362 1240.500854,384.832550 1239.008301,378.974243 
z"/>
<path fill="#FAFAFA" opacity="1.000000" stroke="none" 
	d="
M1433.411621,369.155121 
	C1435.346191,369.126282 1436.843750,369.126282 1438.349854,369.126282 
	C1440.515991,378.880920 1438.911865,382.707916 1431.544678,385.301819 
	C1427.043823,386.886505 1423.479736,385.735596 1421.724487,382.130676 
	C1419.911865,378.407867 1421.112549,373.912994 1424.998291,371.824799 
	C1427.428223,370.518921 1430.300537,370.036072 1433.411621,369.155121 
z"/>
<path fill="#FAFAFA" opacity="1.000000" stroke="none" 
	d="
M1526.598511,352.257874 
	C1528.472656,356.021271 1530.049805,359.539734 1531.926392,363.726318 
	C1523.656860,363.726318 1516.594971,363.726318 1509.067139,363.726318 
	C1508.991211,358.937134 1510.022217,354.608887 1514.228027,351.773712 
	C1518.181396,349.108673 1522.328857,349.282562 1526.598511,352.257874 
z"/>
<path fill="#FCFCFC" opacity="1.000000" stroke="none" 
	d="
M1756.127930,372.507874 
	C1756.690186,366.995026 1756.863037,361.819794 1758.036743,356.882416 
	C1759.098999,352.412842 1762.722046,350.246338 1767.362305,350.004120 
	C1772.195923,349.751801 1775.959473,351.651917 1777.806885,356.116730 
	C1781.131958,364.152893 1781.043457,372.343536 1777.544189,380.322937 
	C1775.855347,384.174072 1772.534668,385.891937 1768.332397,386.007233 
	C1764.148315,386.122040 1760.694214,384.672485 1758.793701,380.905731 
	C1757.549927,378.440613 1757.022827,375.613861 1756.127930,372.507874 
z"/>
</svg>