<svg width="588" height="196" viewBox="0 0 588 196" fill="none" xmlns="http://www.w3.org/2000/svg">
<path d="M394.674 100.887C387.041 108.054 379.571 115.367 374.215 124.501C372.452 127.507 371.106 130.685 370.58 134.177C370.163 136.945 370.609 138.226 373.315 138.797C377.158 139.608 381.102 140.22 385.02 140.334C391.101 140.511 397.204 140.359 403.283 140.056C413.812 139.532 424.329 138.761 434.854 138.14C441.25 137.762 447.649 137.458 454.048 137.146C466.228 136.551 478.412 136.412 490.586 137.176C497.303 137.598 504.041 138.008 510.703 138.913C521.304 140.351 531.749 142.613 541.809 146.381C542.506 146.642 543.167 147.002 543.9 147.342C542.74 150.253 541.621 153.059 540.488 155.901C537.394 154.874 534.405 153.793 531.364 152.888C523.571 150.569 515.618 148.896 507.54 148.095C499.229 147.271 490.879 146.699 482.533 146.396C474.931 146.119 467.302 146.126 459.7 146.411C448.24 146.841 436.791 147.612 425.339 148.257C420.127 148.55 414.918 148.888 409.708 149.214C409.302 149.239 408.901 149.33 408.5 149.489C464.347 153.19 519.93 159.264 575.477 167.072C575.28 168.668 575.106 170.207 574.895 171.742C574.689 173.243 574.445 174.739 574.193 176.402C572.083 176.128 570.023 175.861 567.964 175.592C559.152 174.439 550.341 173.274 541.528 172.135C534.006 171.163 526.485 170.178 518.955 169.278C512.774 168.539 506.578 167.923 500.391 167.239C492.352 166.352 484.32 165.396 476.275 164.573C469.419 163.873 462.549 163.312 455.684 162.701C449.029 162.109 442.378 161.469 435.716 160.966C427.663 160.358 419.602 159.859 411.543 159.336C404.879 158.903 398.215 158.449 391.546 158.101C384.168 157.715 376.784 157.42 369.401 157.121C360.11 156.745 350.819 156.389 341.526 156.059C338.209 155.942 334.888 155.877 331.568 155.874C313.224 155.856 294.879 155.8 276.535 155.894C268.436 155.936 260.337 156.272 252.24 156.527C247.028 156.691 241.816 156.89 236.609 157.179C225.546 157.792 214.479 158.379 203.426 159.158C193.686 159.844 183.954 160.686 174.235 161.627C163.867 162.631 153.507 163.742 143.163 164.968C132.002 166.291 120.835 167.616 109.722 169.275C95.173 171.448 80.6184 173.657 66.1666 176.382C48.0591 179.797 30.0528 183.748 12.0046 187.476C10.2144 187.846 8.43676 188.277 6.50535 188.713C5.78557 185.725 5.0676 182.744 4.29785 179.549C124.461 151.341 246.272 142.429 369.476 147.431C364.991 145.303 361.48 142.417 361.026 137.022C358.785 137.872 356.682 138.769 354.517 139.473C348.86 141.312 343.001 141.539 337.127 141.332C332.509 141.169 327.897 140.823 323.284 140.524C317.178 140.127 312.364 137.104 308.511 132.638C306.301 130.076 304.605 127.06 302.779 124.184C301.624 122.365 300.274 121.694 298.067 122.679C295.253 123.934 292.541 125.433 289.847 126.938C281.536 131.58 273.275 136.313 264.945 140.92C262.9 142.05 260.639 142.72 258.22 142.412C254.369 141.922 252.321 139.153 252.958 135.299C252.992 135.096 253.024 134.892 253.08 134.552C250.022 136.101 247.115 137.64 244.15 139.06C237.138 142.416 229.81 144.741 221.982 144.848C218.869 144.891 215.68 144.505 212.642 143.806C207.867 142.706 204.846 138.517 204.378 133.003C201.4 133.792 198.455 134.662 195.468 135.346C187.913 137.076 180.348 137.58 172.787 135.296C172.281 135.144 171.582 135.186 171.112 135.42C158.24 141.824 144.352 145.131 130.556 148.695C122.255 150.839 113.851 152.52 105.272 153.055C100.497 153.353 95.7001 153.388 91.1867 151.411C85.3787 148.868 83.2036 143.907 85.1662 137.788C86.6856 133.051 89.5857 129.14 92.6986 125.363C92.8997 125.119 93.0826 124.86 93.0664 124.882C69.871 128.579 46.4814 132.308 22.9101 136.066C22.467 132.61 22.0823 129.61 21.6713 126.405C23.87 126.085 26.0489 125.769 28.2278 125.452C34.0725 124.6 39.9223 123.783 45.7606 122.889C53.4999 121.704 61.2509 120.578 68.9595 119.214C80.2143 117.224 91.4362 115.046 102.671 112.944C103.732 112.746 104.778 112.412 105.847 112.322C109.427 112.023 111.738 109.401 114.513 107.651C117.67 105.66 120.714 103.488 123.844 101.451C124.357 101.117 125.057 100.92 125.673 100.915C131.117 100.876 136.561 100.895 142.006 100.902C142.149 100.903 142.293 100.973 142.705 101.081C140.474 102.415 138.428 103.639 136.382 104.863C136.398 104.952 136.414 105.041 136.43 105.13C136.803 105.105 137.194 105.145 137.546 105.045C151.239 101.176 164.929 97.2942 178.617 93.4054C178.869 93.3337 179.091 93.1544 179.532 92.9228C180.057 92.7683 180.396 92.765 180.696 92.657C187.532 90.1997 194.363 87.7309 201.195 85.2642C205.406 83.4981 209.618 81.732 214.032 79.861C220.105 76.6156 226.029 73.5676 231.817 70.2811C233.699 69.2127 235.227 67.5206 236.916 66.1137C237.732 65.2046 238.698 64.3882 239.328 63.365C240.32 61.7539 240.111 61.4419 238.269 60.9803C238.269 57.9018 238.269 54.8229 238.269 51.7522C244.997 51.4404 251.787 57.4373 248.667 65.7213C247.073 69.954 244.021 72.9445 240.353 75.7009C238.513 76.998 236.894 78.2856 235.114 79.2861C230.132 82.0863 225.083 84.7677 220.06 87.4961C216.088 89.1749 212.116 90.8573 208.142 92.5311C205.902 93.4742 203.656 94.4033 201.183 95.399C197.968 96.6048 194.983 97.7502 191.999 98.8957C189.994 99.5114 187.987 100.12 185.985 100.744C178.242 103.158 170.557 105.781 162.746 107.948C150.598 111.318 138.372 114.409 126.161 117.548C123.178 118.315 120.126 118.818 117.104 119.434C114.104 120.046 111.418 121.144 109.018 123.218C104.504 127.121 99.7968 130.802 96.5451 135.919C95.7345 137.195 95.0267 138.556 94.4386 139.948C93.5836 141.973 93.8467 142.771 95.97 143.051C99.1247 143.468 102.368 143.788 105.523 143.532C120.043 142.355 133.928 138.205 147.839 134.191C154.036 132.403 160.076 130.247 165.866 127.395C166.774 126.948 167.347 126.474 167.726 125.395C168.635 122.804 170.693 121.062 172.892 119.511C178.597 115.485 184.936 112.812 191.561 110.747C198.557 108.565 205.693 107.081 213.018 106.651C217.106 106.412 221.141 106.672 224.988 108.352C230.502 110.759 231.265 115.317 230.604 119.711C230.553 120.048 230.122 120.389 229.789 120.611C227.178 122.352 224.463 123.951 221.949 125.821C219.831 127.396 217.926 129.261 215.959 131.034C215.567 131.388 215.286 131.885 215.017 132.352C214.24 133.7 214.663 134.692 216.188 134.933C220.513 135.617 224.815 135.443 229.086 134.464C236.899 132.672 243.891 129.003 250.614 124.822C258.41 119.974 265.705 114.423 272.491 108.233C278.565 102.691 284.572 97.0737 290.575 91.4544C292.518 89.6365 294.766 88.8567 297.273 89.6501C299.62 90.3931 301.192 92.1208 301.713 94.6056C302.251 97.1713 300.903 98.932 299.124 100.541C292.693 106.359 286.272 112.188 279.891 118.061C277.468 120.29 275.161 122.644 272.81 124.951C272.43 125.324 272.1 125.748 271.934 126.439C272.563 126.106 273.201 125.789 273.82 125.439C280.351 121.737 286.814 117.906 293.448 114.398C295.581 113.27 298.125 112.739 300.547 112.381C304.38 111.813 307.273 113.653 309.317 116.796C310.553 118.697 311.548 120.752 312.729 122.69C314.345 125.339 316.42 127.573 318.975 129.362C319.452 127.446 319.747 125.575 320.387 123.83C321.995 119.444 325.289 116.379 328.9 113.651C336.402 107.986 344.918 104.642 354.158 103.303C359.123 102.583 364.184 102.633 368.797 105.081C370.63 106.053 372.22 107.484 373.918 108.704C376.629 105.757 379.482 102.655 382.502 99.4194C385.596 96.5519 388.493 93.7869 391.455 91.0917C394.212 88.5819 397.037 86.1463 399.937 83.6365C404.257 80.2186 408.473 76.8423 412.724 73.4107C412.806 73.2817 412.86 73.213 412.916 73.1622C412.913 73.1752 412.887 73.1716 413.003 73.1839C418.281 69.4502 423.422 65.6739 428.613 61.9677C433.056 58.7952 437.557 55.703 442.033 52.5752C445.042 50.6214 448.043 48.6537 451.064 46.7164C460.7 40.5359 470.345 34.3695 479.981 28.1883C480.849 27.6316 481.438 27.5632 482.045 28.6337C483.325 30.8916 484.752 33.066 486.218 35.4354C483.309 37.2626 480.419 39.0197 477.587 40.8656C465.894 48.4874 454.217 56.1336 442.545 63.7865C442.162 64.0375 441.89 64.4578 441.372 64.8613C437.838 67.2276 434.462 69.4813 431.164 71.845C418.514 80.9124 406.212 90.42 394.674 100.887ZM358.506 112.612C351.828 112.669 345.742 114.853 339.919 117.888C336.254 119.799 332.695 121.92 330.279 125.42C328.179 128.46 329.715 131.544 333.434 131.603C337.449 131.666 341.492 131.698 345.482 131.319C354.386 130.472 361.318 126.243 366.175 118.638C367.11 117.174 366.779 116.145 365.805 115.024C363.939 112.877 361.41 112.664 358.506 112.612ZM216.324 116.212C213.669 116.359 210.981 116.295 208.364 116.693C199.071 118.106 190.146 120.932 181.333 124.119C179.839 124.659 178.42 125.407 176.547 126.247C177.405 126.533 177.743 126.697 178.099 126.757C182.211 127.452 186.319 127.328 190.417 126.625C197.617 125.39 204.438 122.944 211.109 120.052C213.547 118.995 215.916 117.779 218.316 116.636C218.277 116.526 218.237 116.415 218.197 116.305C217.671 116.277 217.144 116.249 216.324 116.212Z" fill="#D24B44"/>
<path d="M201.199 85.1109C194.363 87.7309 187.532 90.1997 180.696 92.6571C180.396 92.7651 180.058 92.7683 179.619 92.8345C175.204 90.0739 172.247 86.0191 169.194 82.0567C162.415 73.2581 155.636 64.4585 148.851 55.6639C148.591 55.3269 148.268 55.0385 147.75 54.4896C147.711 55.2652 147.665 55.7644 147.664 56.2637C147.66 65.6276 147.744 74.9926 147.628 84.355C147.567 89.3429 149.098 93.3466 153.467 96.061C154.548 96.732 155.499 97.6097 156.754 98.5813C112.149 98.5813 67.8686 98.5813 23.2831 98.5813C24.8204 97.3465 26.1027 96.1291 27.5609 95.1827C31.0826 92.8971 32.2478 89.4729 32.2934 85.571C32.3774 78.3857 32.3256 71.1988 32.3266 64.0126C32.3281 52.5799 32.3498 41.1471 32.3004 29.7147C32.2932 28.0487 31.9949 26.3756 31.7339 24.7211C31.3856 22.5126 30.1194 20.8563 28.3752 19.5241C26.6967 18.242 25.0283 16.9469 23.1621 15.5085C38.0386 15.5085 52.7095 15.5085 67.5352 15.5085C66.0055 16.7224 64.6219 17.9873 63.0783 19.0109C59.6263 21.3 58.5012 24.6691 58.4911 28.5419C58.4571 41.5533 58.475 54.5648 58.4734 67.5763C58.4729 71.7683 58.4566 75.9604 58.4973 80.152C58.5017 80.6079 58.7885 81.4265 59.0265 81.4581C61.4254 81.7768 63.8846 82.3611 66.2427 82.1026C70.0695 81.683 72.5728 78.943 74.7329 75.9844C78.3642 71.0108 80.6473 65.3499 82.9385 59.6955C84.4602 55.9405 86.0058 52.1951 87.5518 48.45C87.7471 47.977 88.0103 47.532 88.3927 46.7764C87.6304 63.5063 86.8845 79.8751 86.1344 96.3358C92.2164 94.287 94.1694 91.6695 94.2076 84.6362C94.3083 66.1268 94.2412 47.6164 94.223 29.1065C94.222 28.0241 94.1266 26.932 93.9641 25.8613C93.5086 22.8593 91.9545 20.5649 89.4427 18.8499C88.0128 17.8735 86.6918 16.7374 85.0704 15.4779C85.7896 15.4327 86.2353 15.3803 86.6809 15.3802C107.913 15.3762 129.145 15.38 150.377 15.3655C151.284 15.3649 151.89 15.5143 152.528 16.3565C163.028 30.2166 173.591 44.0283 184.143 57.8492C184.371 58.1474 184.624 58.426 185.069 58.9562C185.113 58.2496 185.165 57.809 185.165 57.3684C185.166 48.1149 185.197 38.8612 185.127 29.6082C185.113 27.837 184.798 26.047 184.437 24.304C183.761 21.0401 181.003 19.4803 178.675 17.591C177.851 16.9224 176.997 16.2901 175.923 15.4602C187.526 15.4602 198.815 15.4602 210.291 15.4602C208.759 16.6719 207.395 17.9438 205.85 18.9325C202.455 21.106 201.292 24.3555 201.223 28.1202C201.142 32.5284 201.203 36.9393 201.203 41.3491C201.203 55.8852 201.203 70.4213 201.199 85.1109ZM120.464 53.4099C120.466 63.9105 120.49 74.4111 120.457 84.9116C120.443 89.4834 121.726 93.3302 125.989 95.6268C130.269 93.4076 131.552 89.5251 131.559 85.0397C131.584 67.9015 131.61 50.7632 131.544 33.6252C131.521 27.8821 129.459 22.9693 124.886 19.2712C122.968 20.4188 121.72 22.0624 121.212 24.1216C120.788 25.843 120.516 27.6463 120.499 29.4164C120.424 37.3048 120.465 45.1942 120.464 53.4099Z" fill="#211701"/>
<path d="M236.87 65.974C235.228 67.5205 233.7 69.2126 231.818 70.281C226.03 73.5676 220.106 76.6155 214.118 79.7891C211.394 75.5661 209.829 70.8938 209.143 66.011C207.924 57.3357 208.63 48.7627 211.723 40.5181C215.157 31.3658 221.159 24.2923 229.664 19.4344C238.091 14.6211 247.264 12.72 256.861 13.3267C262.018 13.6527 267.122 14.7881 272.258 15.4962C273.134 15.617 274.052 15.3837 274.951 15.3828C284.914 15.3729 294.878 15.3992 304.841 15.3469C306.045 15.3406 306.635 15.6073 307.05 16.8283C312.589 33.1261 318.189 49.4033 323.779 65.6838C323.896 66.0246 324.076 66.3437 324.39 67.0286C325.283 64.3017 326.096 61.8856 326.866 59.4558C329.817 50.1455 332.775 40.8374 335.678 31.5121C336.255 29.6611 336.637 27.7462 337.041 25.8463C337.427 24.034 336.793 22.4787 335.421 21.3329C333.054 19.3558 330.595 17.4887 328.084 15.5035C338.192 15.5035 348.255 15.5035 358.512 15.5035C348.9 43.973 339.296 72.4199 329.615 101.094C325.785 99.6601 322.057 98.293 318.351 96.8678C314.834 95.5153 311.535 93.796 308.61 91.3518C305 88.3357 302.784 84.4164 301.204 80.1295C294.732 62.5686 288.354 44.9734 281.917 27.3997C280.799 24.3469 279.5 21.3741 276.954 19.1711C276.849 19.0808 276.696 19.0473 276.416 18.9186C276.416 25.6949 276.416 32.3521 276.416 39.2419C274.26 37.6232 272.372 36.0268 270.314 34.6935C263.331 30.1702 255.85 28.9857 247.876 31.6624C242.625 33.4252 239.679 37.4046 237.861 42.351C235.737 48.1301 235.569 54.1511 236.028 60.2057C236.171 62.0911 236.551 63.9585 236.87 65.974Z" fill="#211701"/>
<path d="M399.833 83.678C397.038 86.1463 394.213 88.5819 391.455 91.0918C388.494 93.7869 385.596 96.5519 382.569 99.3411C376.453 97.9716 370.966 95.4509 366.142 91.5536C357.57 84.6283 352.83 75.553 351.142 64.7724C349.675 55.4006 351.044 46.412 355.112 37.8901C358.801 30.1612 364.344 23.977 371.756 19.646C380.09 14.776 389.214 12.9422 398.803 13.2359C406.331 13.4665 413.572 14.9082 420.292 18.4649C431.351 24.3179 438.098 33.4822 440.957 45.5694C441.477 47.7688 441.662 50.0476 442.018 52.4325C437.558 55.703 433.057 58.7952 428.613 61.9677C423.423 65.6739 418.282 69.4502 413.001 73.0573C413.222 71.8317 413.651 70.7641 413.886 69.6554C415.828 60.4722 415.018 51.4844 411.657 42.7595C409.91 38.226 407.259 34.2601 402.773 31.9797C394.46 27.7544 384.056 31.7926 380.498 40.8891C376.316 51.5846 377.054 62.293 381.616 72.725C383.49 77.0093 386.676 80.1902 390.939 82.2658C393.78 83.6493 396.788 83.7176 399.833 83.678Z" fill="#211701"/>
<path d="M220.096 87.6128C225.083 84.7678 230.132 82.0864 235.114 79.2862C236.894 78.2857 238.513 76.9981 240.309 75.8017C242.225 78.2707 244.189 80.5666 247.028 82.0525C249.648 83.4244 252.374 83.7991 255.249 83.6599C256.102 83.6186 256.959 83.6536 257.945 83.6536C257.945 79.8034 257.945 76.1138 257.945 72.4241C257.945 70.3023 257.798 68.168 257.976 66.0613C258.34 61.7554 256.512 58.6686 253.067 56.3102C252 55.5793 251.049 54.6775 249.875 53.7148C260.942 53.7148 271.823 53.7148 282.82 53.7148C282.846 54.0322 282.902 54.3924 282.902 54.7526C282.906 67.9731 282.901 81.1937 282.916 94.4143C282.918 95.296 282.833 95.84 281.779 96.175C274.556 98.4705 267.236 100.241 259.646 100.75C249.818 101.409 240.335 100.077 231.408 95.7384C227.216 93.7017 223.323 91.1966 220.096 87.6128Z" fill="#211701"/>
<path d="M394.813 100.905C406.212 90.42 418.514 80.9124 431.165 71.845C434.462 69.4813 437.839 67.2276 441.304 64.939C440.454 71.1803 438.162 76.8787 434.583 82.0628C427.754 91.9553 418.18 97.6226 406.554 99.8761C402.762 100.611 398.824 100.595 394.813 100.905Z" fill="#221702"/>
<path d="M160.262 91.6456C159.289 92.1526 158.42 92.5967 157.549 93.038C155.16 94.2494 153.632 93.9219 152.078 91.7662C151.482 90.9392 150.982 90.0309 150.534 89.1127C150.164 88.3521 149.934 87.5226 149.594 86.5918C154.372 84.1461 159.08 81.7365 163.946 79.2458C165.861 81.7409 167.764 84.2197 169.842 86.9264C166.598 88.5201 163.482 90.0508 160.262 91.6456Z" fill="#D34D45"/>
<path d="M432.968 132.457C433.22 131.638 433.422 131.323 434.366 131.62C435.735 132.051 437.218 132.226 438.662 132.285C440.242 132.35 441.227 131.383 441.32 129.844C441.398 128.557 441.336 127.261 441.336 125.603C440.551 126.111 440.173 126.353 439.798 126.597C436.528 128.727 432.946 127.384 432.284 123.532C431.926 121.447 431.987 119.189 432.366 117.1C433.13 112.889 436.943 110.528 441.748 113.372C442.037 112.965 442.334 112.549 442.699 112.035C443.315 112.41 443.891 112.761 444.156 112.923C443.956 114.842 443.625 116.571 443.626 118.3C443.627 121.719 443.766 125.14 443.933 128.556C444.1 131.995 442.107 134.413 438.54 134.504C436.92 134.545 435.271 133.956 433.661 133.549C433.347 133.469 433.155 132.906 432.968 132.457ZM440.997 116.254C440.913 115.851 440.965 115.311 440.721 115.068C439.409 113.76 436.277 114.144 435.407 115.815C434.001 118.516 434.097 121.378 435.162 124.16C435.675 125.501 436.963 125.736 438.184 125.273C439.398 124.813 441.073 124.759 441.011 122.743C440.947 120.682 440.997 118.618 440.997 116.254Z" fill="#251C08"/>
<path d="M478.79 134.092C477.982 133.75 477.29 133.476 476.498 133.164C476.765 132.504 476.98 131.974 477.115 131.642C479.002 131.88 480.736 132.204 482.482 132.286C483.98 132.358 484.945 131.46 485.078 129.961C485.197 128.626 485.103 127.272 485.103 125.578C484.307 126.109 483.924 126.371 483.535 126.623C480.271 128.734 476.683 127.343 476.042 123.494C475.702 121.454 475.722 119.251 476.097 117.217C476.876 112.991 480.532 110.48 485.536 113.361C485.829 112.95 486.13 112.53 486.483 112.036C487.108 112.423 487.686 112.78 487.986 112.966C487.766 114.706 487.401 116.275 487.401 117.844C487.404 121.425 487.539 125.008 487.706 128.587C487.89 132.512 484.807 135.196 480.827 134.49C480.187 134.376 479.546 134.27 478.79 134.092ZM479.794 125.131C480.047 125.225 480.293 125.374 480.554 125.406C483.03 125.708 484.77 124.18 484.77 121.724C484.77 119.875 484.788 118.027 484.756 116.179C484.749 115.787 484.681 115.262 484.429 115.032C483.122 113.846 480.306 114.188 479.275 115.593C477.74 117.687 477.899 122.92 479.794 125.131Z" fill="#251C08"/>
<path d="M560.796 126.692C560.903 127.61 560.903 127.61 559.101 128.425C558.751 127.902 558.384 127.353 558.036 126.833C557.038 127.25 556.079 127.763 555.056 128.055C552.433 128.804 550.08 127.586 549.209 124.934C548.201 121.866 548.224 118.719 549.263 115.672C550.305 112.619 553.334 111.362 556.352 112.541C556.737 112.691 557.111 112.867 557.638 113.096C557.638 111.214 557.638 109.486 557.638 107.757C557.638 105.433 557.638 105.433 560.137 104.917C560.164 105.508 560.211 106.072 560.211 106.636C560.217 112.451 560.194 118.265 560.238 124.08C560.244 124.915 560.563 125.748 560.796 126.692ZM556.47 125.107C557.363 124.625 557.697 123.936 557.647 122.872C557.546 120.709 557.625 118.537 557.608 116.369C557.605 116.013 557.572 115.395 557.41 115.343C556.203 114.954 554.899 114.303 553.746 114.487C552.885 114.625 551.719 115.788 551.541 116.667C551.139 118.651 551.042 120.763 551.226 122.786C551.531 126.151 553.249 126.897 556.47 125.107Z" fill="#251C08"/>
<path d="M402.554 126.166C402.445 125.153 402.112 124.103 402.27 123.133C402.7 120.496 404.612 118.976 407.63 118.596C408.59 118.475 409.549 118.346 410.482 118.225C411.53 114.156 408.432 113.315 403.733 115.302C403.506 114.733 403.279 114.165 403.021 113.518C405.184 112.426 407.298 111.777 409.64 112.27C412.203 112.81 413.181 113.987 413.209 116.669C413.236 119.17 413.202 121.671 413.224 124.172C413.23 124.761 413.178 125.453 413.454 125.919C414.268 127.29 413.54 127.866 412.235 128.416C411.832 127.813 411.405 127.173 410.98 126.536C407.072 129.083 404.534 128.976 402.632 126.176C402.534 126.161 402.554 126.166 402.554 126.166ZM404.743 123.928C405.23 125.712 406.181 126.382 407.733 126.034C410.295 125.46 411.05 123.94 410.41 120.466C409.519 120.577 408.608 120.636 407.72 120.812C406.142 121.127 404.835 121.78 404.743 123.928Z" fill="#261D09"/>
<path d="M468.868 118.366C470.383 118.497 470.065 117.506 470.092 116.749C470.139 115.423 469.578 114.385 468.222 114.376C466.59 114.365 464.955 114.71 463.046 114.934C462.969 114.745 462.736 114.179 462.466 113.523C464.618 112.437 466.727 111.778 469.067 112.266C471.644 112.803 472.631 113.974 472.663 116.635C472.693 119.134 472.657 121.633 472.678 124.132C472.683 124.721 472.717 125.333 472.875 125.895C473.342 127.557 473.369 127.55 471.622 128.387C471.246 127.784 470.859 127.164 470.559 126.684C469.22 127.244 467.949 127.96 466.585 128.302C464.655 128.787 462.567 127.476 461.943 125.645C461.098 123.162 461.936 120.629 464.234 119.585C465.624 118.953 467.222 118.78 468.868 118.366ZM468.105 120.6C467.232 120.879 466.294 121.036 465.5 121.463C464.231 122.145 463.838 123.613 464.43 124.829C465.004 126.007 466.168 126.383 467.638 125.865C470.045 125.018 470.569 123.768 469.861 120.581C469.369 120.581 468.88 120.581 468.105 120.6Z" fill="#261D09"/>
<path d="M496.672 128.325C491.195 127.469 490.189 123.077 490.421 119.286C490.502 117.965 490.894 116.593 491.454 115.389C492.528 113.08 495.361 111.706 497.636 112.155C500.388 112.697 502.008 114.533 502.399 117.551C502.868 121.175 502.868 121.175 499.206 121.175C497.148 121.175 495.09 121.175 493.043 121.175C492.675 125.351 495.392 126.733 501.565 125.587C501.767 125.998 501.978 126.427 502.234 126.948C500.531 128.026 498.722 128.378 496.672 128.325ZM498.592 114.991C497.294 114.099 495.939 114.042 494.648 114.913C493.274 115.839 492.937 117.253 492.962 118.817C495.421 118.817 497.728 118.817 500.429 118.817C499.816 117.45 499.301 116.3 498.592 114.991Z" fill="#261D09"/>
<path d="M453.987 128.043C453.05 128.155 452.231 128.411 451.447 128.33C448.783 128.053 447.612 126.642 447.562 123.674C447.511 120.685 447.535 117.695 447.555 114.705C447.572 112.276 447.121 112.621 450.129 112.157C450.129 114.612 450.129 117.039 450.129 119.466C450.129 120.934 450.113 122.401 450.134 123.869C450.156 125.3 450.889 126.053 452.34 126.114C455.028 126.225 456.37 124.954 456.37 122.269C456.37 119.823 456.48 117.371 456.334 114.933C456.226 113.133 456.527 111.961 458.852 112.218C458.881 112.644 458.943 113.153 458.945 113.662C458.953 117.195 458.94 120.728 458.959 124.261C458.962 124.848 458.921 125.533 459.193 126.003C460.01 127.416 459.219 127.925 457.937 128.385C457.598 127.899 457.239 127.383 456.825 126.789C455.943 127.195 455.032 127.614 453.987 128.043Z" fill="#271E0B"/>
<path d="M534.12 113.215C534.873 112.691 535.624 112.312 536.696 111.771C536.696 114.722 536.696 117.258 536.696 119.793C536.696 121.152 536.68 122.511 536.701 123.869C536.724 125.3 537.456 126.053 538.906 126.114C541.593 126.226 542.937 124.954 542.937 122.272C542.937 119.827 543.045 117.375 542.901 114.939C542.796 113.146 543.078 111.957 545.417 112.22C545.446 112.64 545.51 113.147 545.511 113.655C545.52 117.187 545.507 120.719 545.525 124.251C545.529 124.838 545.479 125.53 545.756 125.992C546.606 127.414 545.785 127.912 544.524 128.381C544.152 127.866 543.757 127.319 543.478 126.932C541.954 127.428 540.549 128.206 539.103 128.29C535.755 128.485 534.238 127.229 534.138 123.631C534.043 120.21 534.118 116.784 534.12 113.215Z" fill="#271E0B"/>
<path d="M580.352 127.676C575.798 129.406 571.864 127.137 571.364 122.384C571.155 120.396 571.274 118.276 571.745 116.339C572.38 113.733 574.771 112.161 577.402 112.066C579.85 111.978 581.998 113.396 583.152 115.794C584.989 119.613 584.153 125.77 580.352 127.676ZM573.684 121.83C573.961 122.7 574.133 123.624 574.539 124.429C575.16 125.66 576.288 126.133 577.655 126.096C579.028 126.058 580.113 125.497 580.664 124.239C581.807 121.632 581.836 118.957 580.75 116.331C580.147 114.873 578.917 114.252 577.338 114.335C575.822 114.414 574.639 115.121 574.292 116.581C573.908 118.194 573.852 119.885 573.684 121.83Z" fill="#251C08"/>
<path d="M419.523 114.079C421.145 113.489 422.653 112.61 424.28 112.168C426.319 111.615 428.157 112.784 428.251 114.868C428.447 119.185 428.31 123.518 428.31 127.941C427.666 127.941 426.935 127.941 425.99 127.941C425.99 125.736 425.99 123.578 425.99 121.42C425.99 120.005 425.873 118.578 426.014 117.178C426.318 114.172 424.127 113.87 422.114 114.643C420.441 115.285 419.546 116.222 419.69 118.267C419.914 121.447 419.749 124.655 419.749 127.942C418.844 127.942 418.113 127.942 417.17 127.942C417.17 124.427 417.197 120.963 417.157 117.499C417.141 116.067 416.984 114.637 416.876 112.979C417.173 112.825 417.785 112.509 418.591 112.091C418.905 112.774 419.183 113.379 419.523 114.079Z" fill="#271E0B"/>
<path d="M524.543 125.432C524.445 122.586 524.377 119.873 524.32 117.159C524.303 116.357 524.317 115.554 524.317 114.701C523.432 114.657 522.689 114.621 521.827 114.579C521.827 113.902 521.827 113.279 521.827 112.491C522.566 112.439 523.353 112.384 524.237 112.322C524.237 110.815 524.237 109.308 524.237 107.625C525.1 107.346 525.93 107.078 526.907 106.762C526.907 108.688 526.907 110.466 526.907 112.358C528.572 112.358 530.132 112.358 531.76 112.358C531.543 116.083 528.602 114.017 526.91 114.863C526.91 118.065 526.842 121.372 526.983 124.67C527.004 125.171 527.939 125.939 528.543 126.043C529.635 126.229 530.797 126.006 532.06 125.948C532.714 126.63 532.631 127.241 531.567 127.632C529.645 128.34 527.674 128.854 525.848 127.523C525.26 127.095 524.992 126.23 524.543 125.432Z" fill="#271E0B"/>
<path d="M515.248 126.108C518.097 126.108 518.958 125.571 518.705 123.756C518.603 123.026 517.992 122.206 517.374 121.746C516.48 121.08 515.361 120.72 514.353 120.199C512.128 119.048 511.194 117.401 511.694 115.558C512.283 113.388 514.259 111.885 516.584 112.101C517.946 112.227 519.274 112.727 520.636 113.063C520.508 114.665 520.095 115.33 518.601 114.671C517.938 114.379 517.067 114.199 516.398 114.376C515.607 114.586 514.623 115.078 514.283 115.736C513.798 116.677 514.129 117.799 515.194 118.397C516.173 118.947 517.207 119.399 518.213 119.903C520.665 121.131 521.681 122.735 521.24 124.672C520.726 126.933 518.795 128.469 516.18 128.314C514.56 128.218 512.969 127.635 511.161 127.225C511.52 126.329 511.746 125.765 511.967 125.214C513.065 125.526 514.085 125.816 515.248 126.108Z" fill="#281F0D"/>
<path d="M402.526 126.155C402.277 127.857 401.659 128.368 399.84 128.362C398.13 128.356 396.74 127.379 396.544 125.895C396.367 124.56 396.284 123.203 396.276 121.856C396.245 117.133 396.241 112.41 396.273 107.687C396.29 105.11 395.733 105.461 398.843 104.939C398.843 105.547 398.843 106.121 398.843 106.695C398.843 112.341 398.842 117.986 398.843 123.632C398.843 126.126 398.946 126.212 401.439 126.051C401.717 126.033 402.007 126.191 402.423 126.217C402.554 126.166 402.535 126.161 402.526 126.155Z" fill="#271E0B"/>
<path d="M565.15 120.54C565.15 118.533 565.15 116.688 565.15 114.727C564.305 114.672 563.523 114.622 562.643 114.566C562.643 113.868 562.643 113.245 562.643 112.391C564.048 112.391 565.448 112.328 566.833 112.438C567.156 112.464 567.687 113.077 567.691 113.424C567.748 118.206 567.73 122.989 567.73 127.904C566.858 127.904 566.091 127.904 565.15 127.904C565.15 125.465 565.15 123.084 565.15 120.54Z" fill="#271E0C"/>
<path d="M206.297 60.2329C206.629 61.5168 206.841 62.8463 207.042 64.1776C207.268 65.6746 207.456 67.178 207.716 68.6692C207.856 69.4745 207.741 69.9891 206.842 70.2519C205.663 70.5961 204.526 71.0792 203.177 71.5733C203.177 68.2907 203.146 65.1609 203.222 62.0337C203.231 61.6859 203.803 61.2555 204.207 61.0361C204.818 60.7042 205.512 60.524 206.297 60.2329Z" fill="#D34D45"/>
<path d="M192.115 98.9577C194.983 97.7504 197.968 96.605 201.069 95.437C201.185 97.3431 201.185 99.2717 201.185 101.43C198.086 100.595 195.159 99.8074 192.115 98.9577Z" fill="#261C07"/>
<path d="M567.096 108.506C565.609 109.09 564.644 108.413 564.36 107.23C564.222 106.655 564.849 105.649 565.416 105.208C566.42 104.428 567.4 104.991 568.026 105.924C568.769 107.032 568.234 107.855 567.096 108.506Z" fill="#2B2310"/>
<path d="M412.724 73.4107C412.658 73.3555 412.685 73.2616 412.845 73.1667C412.86 73.213 412.806 73.2817 412.724 73.4107Z" fill="#211701"/>
</svg>
