<svg width="105" height="37" viewBox="0 0 105 37" fill="none" xmlns="http://www.w3.org/2000/svg">
<path d="M44.5331 32.4164C47.509 32.4164 50.0987 30.8507 49.7352 28.0142C49.4172 24.6559 42.0797 24.4063 42.0797 21.3203C42.0797 20.0949 43.1247 19.6184 44.3287 19.6184C45.6689 19.6184 46.5549 20.1857 46.5549 21.0934C46.5549 22.2279 45.7825 22.3187 45.7825 22.3187C45.7825 23.1129 46.4186 23.839 47.3954 23.839C48.1678 23.839 48.7584 23.3398 48.7584 22.5456C48.7584 20.5034 46.5776 19.3007 44.2832 19.3007C41.4664 19.3007 39.0811 20.5715 39.3991 23.4079C39.808 27.1066 47.0547 27.5604 47.0547 30.4195C47.0547 31.8037 45.3509 32.1214 44.3968 32.1214C43.1474 32.1214 41.6708 31.5768 41.6708 30.2607C41.6708 30.1472 41.6708 30.0338 41.6935 29.8976C41.8071 29.1942 42.4886 29.1034 42.4886 29.1034C42.4886 28.1731 41.7617 27.3562 40.6486 27.3562C39.7626 27.3562 39.0811 27.9462 39.0811 28.8538C39.0811 31.0776 41.739 32.4164 44.5331 32.4164Z" fill="#AADBFF"/>
<path d="M51.9456 37H55.2488V31.2818C55.9076 31.9625 56.8026 32.371 57.7113 32.371C59.8239 32.371 61.5504 30.1699 61.5504 27.4469C61.5504 24.7467 59.8239 22.7044 57.7113 22.7044C56.8026 22.7044 55.9076 23.0311 55.2488 23.7119V22.9313H51.9456V37ZM56.6436 31.7583C56.0984 31.7583 55.5669 31.3272 55.2488 30.6237V24.2928C55.5669 23.5894 56.0984 23.1583 56.6436 23.1583C57.734 23.1583 58.211 25.019 58.211 27.4469C58.211 29.8976 57.8021 31.7583 56.6436 31.7583Z" fill="#AADBFF"/>
<path d="M63.7371 32.1894L67.0713 32.1894V25.0416C67.3439 24.6558 67.9319 23.9978 68.1137 23.839C68.9542 23.1129 69.7947 23.249 69.7947 24.497V32.1894H73.1113V24.5651C73.1113 23.544 72.0664 22.5683 70.4989 22.5683C68.9769 22.5683 67.7528 23.7709 67.0713 24.6558L67.0634 13.8661H63.7371V32.1894Z" fill="#FECD81"/>
<path d="M79.8507 32.4163C82.2814 32.4163 83.7807 30.7372 84.2577 28.5361L84.0079 28.4907C83.5308 29.9203 82.4404 30.9187 81.1683 30.9187C79.4418 30.9187 78.1924 29.3076 78.0788 26.4258H83.9852C83.9852 24.0432 82.2814 22.6817 79.8507 22.6817C77.0793 22.6817 74.8076 24.8601 74.8076 27.5377C74.8076 30.238 77.0793 32.4163 79.8507 32.4163ZM78.0788 26.1989C78.1015 24.3609 78.8285 22.9313 79.7144 22.9313C80.6004 22.9313 80.9411 24.3609 80.9411 26.1989H78.0788Z" fill="#AADBFF"/>
<path d="M91.8865 22.7271C90.6598 22.7271 89.842 23.2717 89.274 24.2248V22.9313H85.9574V32.1894H89.274V24.6786C89.7738 23.6802 90.5007 23.0675 91.364 23.0675C92.0228 23.0675 92.4771 23.6348 92.4771 24.3382C92.4771 25.4274 91.3185 26.0174 91.3185 26.0174C91.364 26.5847 91.9092 27.3562 92.8178 27.3562C94.1581 27.3562 94.6352 26.2443 94.6352 25.2912C94.6352 23.4306 93.2495 22.7271 91.8865 22.7271Z" fill="#AADBFF"/>
<path d="M100.593 32.4163C103.024 32.4163 104.523 30.7372 105 28.5361L104.75 28.4907C104.273 29.9203 103.183 30.9187 101.911 30.9187C100.184 30.9187 98.9346 29.3076 98.8211 26.4258H104.727C104.727 24.0432 103.024 22.6817 100.593 22.6817C97.8215 22.6817 95.5499 24.8601 95.5499 27.5377C95.5499 30.238 97.8215 32.4163 100.593 32.4163ZM98.8211 26.1989C98.8438 24.3609 99.5707 22.9313 100.457 22.9313C101.343 22.9313 101.683 24.3609 101.683 26.1989H98.8211Z" fill="#AADBFF"/>
<path d="M39 14.0687H49.1543L49.5405 9.7346H49.3134C49.1543 12.0945 46.6555 13.8417 44.0204 13.8417H42.4302V1.36148H39V14.0687Z" fill="#AADBFF"/>
<path d="M53.5944 3.56255C54.5939 3.56255 55.389 2.76835 55.389 1.76993C55.389 0.794197 54.5939 0 53.5944 0C52.6176 0 51.8225 0.794197 51.8225 1.76993C51.8225 2.76835 52.6176 3.56255 53.5944 3.56255ZM51.9361 14.0686H55.2527V4.83326L51.9361 4.81057V14.0686Z" fill="#AADBFF"/>
<path d="M57.6569 14.0687H60.9736V6.92087C61.2462 6.53512 61.8822 5.87707 62.064 5.71823C62.9045 4.9921 63.745 5.12825 63.745 6.37628V14.0687H67.0616V6.44435C67.0616 5.42324 66.0166 4.44751 64.4492 4.44751C62.9272 4.44751 61.6551 5.65015 60.9736 6.53512V4.81057H57.6569V14.0687Z" fill="#FECD81"/>
<path d="M73.4148 18.017C76.9359 17.9035 79.0258 15.7478 79.0258 14.0233C79.0258 11.6407 77.2085 11.1188 74.9596 11.1188C73.96 11.1188 72.9378 11.2095 71.3022 11.2095C70.6434 11.2095 70.4162 11.0507 70.4162 10.7103C70.4162 10.37 70.8024 9.98421 71.3022 9.71191C71.9837 10.0069 72.8469 10.143 73.801 10.143C76.368 10.143 78.208 8.91771 78.208 7.42008C78.208 5.92245 76.5724 4.7425 74.1872 4.58366C74.1872 4.31136 74.4825 3.53985 75.5048 3.53985C76.8677 3.53985 76.8677 4.58366 76.8677 4.58366C77.2539 4.58366 78.208 3.97099 78.208 2.92719C78.208 2.04222 77.2539 1.36148 76.2544 1.36148C73.9373 1.36148 73.96 3.99368 74.0055 4.58366H73.801C71.1886 4.58366 69.3485 5.85438 69.3485 7.42008C69.3485 8.23697 70.0528 9.07655 71.0523 9.59845C70.6207 9.89344 68.7806 11.0507 68.7806 12.4349C68.7806 13.161 69.3485 14.0687 70.916 14.0687C74.2326 14.0687 77.3448 14.1821 77.3448 15.4528C77.3448 17.2228 74.7778 17.79 73.4603 17.79C72.2563 17.79 70.8933 17.3362 70.8933 16.3151C70.8933 15.4528 71.6429 15.7024 71.6429 15.7024C71.6429 15.7024 71.3249 14.2729 70.1436 14.2729C69.1214 14.2729 68.7579 15.0444 68.7579 15.6344C68.7579 15.9974 68.8715 18.1531 73.4148 18.017ZM73.801 9.91613C72.597 9.91613 72.1881 8.89502 72.1881 7.42008C72.1881 5.87707 72.597 4.81057 73.801 4.81057C74.8687 4.81057 75.3685 5.87707 75.3685 7.42008C75.3685 8.89502 74.9368 9.91613 73.801 9.91613Z" fill="#AADBFF"/>
<path d="M83.3409 14.2956C84.8629 14.2956 86.1351 13.0929 86.8166 12.208V12.2533C86.8166 13.3879 87.7025 14.2956 88.8611 14.2956C90.0423 14.2956 90.9964 13.3425 90.9964 12.1626L90.8147 12.1399C90.7693 12.7979 90.6557 12.9114 90.4967 12.9114C90.2014 12.9114 90.1332 12.5483 90.1332 12.1399V4.81057H86.8166V11.8222C86.544 12.208 85.9079 12.866 85.7262 13.0249C84.8857 13.751 84.0451 13.6148 84.0451 12.3668V4.81057H80.7285V12.2987C80.7285 13.3198 81.7735 14.2956 83.3409 14.2956Z" fill="#AADBFF"/>
<path d="M94.8661 14.2956C96.0928 14.2956 97.3422 13.3652 97.8647 12.5029C97.9783 13.5241 98.8188 14.2956 99.8864 14.2956C101.068 14.2956 102.022 13.3425 102.022 12.1626L101.84 12.1399C101.795 12.7979 101.681 12.9114 101.522 12.9114C101.227 12.9114 101.159 12.5483 101.159 12.1399V8.37312C101.159 7.23855 100.682 6.35359 99.9092 5.71823C99.0232 4.9921 97.8192 4.60635 96.3654 4.60635C94.2527 4.60635 92.549 5.69554 92.549 7.07971C92.549 7.91929 93.0715 8.78156 94.2527 8.66811C94.9797 8.60003 95.5249 7.96467 95.5249 7.53354C95.5249 7.53354 94.7979 7.35201 94.7979 6.28551C94.7979 5.21902 95.5249 4.85595 96.3427 4.85595C97.1832 4.85595 97.842 5.42324 97.842 6.48973V8.12351C94.6843 9.62114 92.1401 9.77998 92.1401 12.1172C92.1401 13.3425 93.2986 14.2956 94.8661 14.2956ZM96.3881 13.0022C95.752 13.0022 95.2977 12.3441 95.2977 11.6407C95.2977 10.0296 96.2745 9.23539 97.842 8.32773V12.276C97.4558 12.7526 97.0014 13.0022 96.3881 13.0022Z" fill="#AADBFF"/>
<path d="M19.647 23.7637L25.719 27.9824C25.9123 28.1167 26.1778 27.9864 26.1898 27.7514L26.4992 21.6972C28.0719 20.7131 31.1722 17.5051 30.9925 12.5454C30.7678 6.34581 25 2.99805 18.973 3C13.5802 3.00175 6 5.21069 6 12.5454C6 14.0852 7.5 16.998 7.5 16.998M7.5 16.998C7.5 16.998 11.6147 21.9829 14.1428 21.6972C17.6251 21.3036 14.1428 16 7.5 16.998ZM7.5 16.998C6 17 1 19.2047 1 24.551C1 30.998 7.73989 31.1442 9.42487 31.1442L13.1113 33.6754C13.3104 33.8121 13.5811 33.6695 13.5811 33.4281V29.4713C14.3675 29.2417 16.03 28.2117 16.3894 25.9286" stroke="#AADBFF" stroke-width="1.4" stroke-linecap="round"/>
<circle cx="15.25" cy="13.25" r="1.25" fill="#FECD81"/>
<circle cx="6" cy="24.998" r="1" fill="#FECD81"/>
<circle cx="19.25" cy="13.25" r="1.25" fill="#FECD81"/>
<circle cx="9" cy="24.998" r="1" fill="#FECD81"/>
<circle cx="23.25" cy="13.25" r="1.25" fill="#FECD81"/>
<circle cx="12" cy="24.998" r="1" fill="#FECD81"/>
</svg>
