<?xml version="1.0" standalone="no"?>
<!DOCTYPE svg PUBLIC "-//W3C//DTD SVG 20010904//EN"
 "http://www.w3.org/TR/2001/REC-SVG-20010904/DTD/svg10.dtd">
<svg version="1.0" xmlns="http://www.w3.org/2000/svg"
 width="50.000000pt" height="50.000000pt" viewBox="0 0 50.000000 50.000000"
 preserveAspectRatio="xMidYMid meet">

<g transform="translate(0.000000,50.000000) scale(0.100000,-0.100000)"
fill="#000000" stroke="none">
<path d="M170 458 c-59 -30 -80 -70 -91 -170 -9 -73 -8 -83 10 -102 10 -12 28
-39 39 -62 12 -22 37 -55 57 -72 47 -42 84 -42 132 1 21 18 50 41 65 50 15 10
31 30 34 45 4 15 14 32 21 37 9 7 13 25 11 50 -3 36 -6 40 -32 43 l-29 4 5
-66 c4 -48 2 -70 -9 -83 -13 -17 -13 -16 -4 4 17 35 -6 38 -24 3 -16 -30 -42
-39 -62 -19 -6 6 -23 9 -39 7 -23 -2 -29 -8 -29 -28 0 -20 6 -26 28 -28 16 -2
35 2 43 9 8 6 17 9 20 7 9 -10 -48 -48 -71 -48 -30 0 -68 38 -98 97 -14 27
-33 55 -41 62 -23 19 -20 40 4 34 17 -5 20 0 20 30 0 34 1 36 50 46 28 6 64
18 80 26 28 14 31 14 71 -13 28 -19 50 -27 66 -24 23 4 25 8 20 45 -8 56 -36
89 -90 108 -26 8 -50 19 -54 22 -13 14 -60 7 -103 -15z"/>
</g>
</svg>
