<svg width="42" height="42" viewBox="0 0 42 42" fill="none" xmlns="http://www.w3.org/2000/svg">
<g clip-path="url(#clip0_459_119)">
<path d="M32.3103 12.3112C32.3103 12.6974 31.9934 13.0119 31.6042 13.0119C31.215 13.0119 30.8981 12.6974 30.8981 12.3112V9.58024C30.8981 8.51042 30.619 7.41667 30.1368 6.41862C29.6339 5.37956 28.9174 4.4362 28.0666 3.72184C26.2513 2.19401 23.8711 1.42497 21.4771 1.39762C19.0521 1.37028 16.6236 2.10514 14.7567 3.58171C13.8542 4.29606 13.0309 5.22917 12.4557 6.27507C11.9562 7.18425 11.6462 8.17887 11.6462 9.18034V12.3385L11.6669 12.3317L12.3041 13.1144C12.2559 11.86 12.249 10.5133 12.3041 9.32731C12.3454 8.92057 12.4247 8.51383 12.5383 8.1071C13.5683 4.44987 17.7741 2.31364 21.4323 2.51188C24.2638 2.66569 26.923 3.6945 28.604 5.6154C30.9463 8.30534 30.34 11.6208 30.2608 14.902C30.7878 15.0627 31.1254 15.3908 31.2632 15.9274C31.4147 16.5221 31.2494 17.3561 30.7431 18.4977C30.7327 18.5182 30.7224 18.5387 30.7121 18.5592L28.5488 22.0934C27.7152 23.4538 26.8679 24.821 25.7415 25.8703L25.707 25.901C25.8379 26.1027 25.9826 26.3317 26.1307 26.5744C26.4821 27.1383 26.8782 27.7673 27.2606 28.3039C29.6339 30.0778 35.7136 30.4845 38.0249 31.7629C38.7827 32.1833 39.4682 32.7165 40.0159 33.4377C41.3765 35.2218 41.4833 37.6896 42.0034 39.8669C41.8829 41.152 41.1492 41.8903 39.7025 41.9997H2.30099C0.857705 41.8903 0.124006 41.152 0 39.8669C0.520135 37.6896 0.623472 35.2218 1.98753 33.4377C2.53867 32.7165 3.2207 32.1833 3.97851 31.7629C6.29328 30.4811 12.3764 30.0744 14.7463 28.3005C15.1183 27.4801 15.5041 26.2052 15.7453 25.4157L15.7487 25.3986L15.8452 25.0944C15.8555 25.0568 15.8727 25.026 15.8899 24.9919C15.2114 24.1886 14.6258 23.2863 14.0643 22.401L12.2077 19.4718C12.0664 19.4616 11.9286 19.4377 11.7909 19.3932C10.3028 18.9284 9.06963 15.6471 9.31075 14.0988C9.44854 13.2204 9.76199 12.9059 10.2684 12.7145C10.2442 12.6427 10.2305 12.5675 10.2305 12.4889V9.18034C10.2305 7.9362 10.6059 6.71598 11.2156 5.60856C11.8839 4.39176 12.838 3.30827 13.8748 2.48796C15.9967 0.806315 18.749 -0.0276692 21.484 -0.000325466C24.1983 0.0304363 26.9023 0.905436 28.976 2.65202C29.9749 3.49284 30.8188 4.59684 31.4079 5.81706C31.9797 7.00651 32.3138 8.30534 32.3138 9.58366V12.3112H32.3103ZM25.025 26.4582C23.9916 27.2101 22.7447 27.6784 21.1567 27.675C19.3173 27.6716 17.9326 26.9743 16.7959 25.9421C16.7132 25.8669 16.6305 25.7917 16.5513 25.7131C16.2378 26.7487 15.6833 28.5739 15.1631 29.36C15.7625 32.778 17.0955 35.2218 18.3115 37.8229L19.9856 32.0568C19.772 31.6979 19.6721 31.3835 19.6583 31.1134C18.8006 31.592 17.8775 31.9098 16.9164 32.1217C15.8693 30.9391 15.7797 29.7052 16.9164 28.3962C18.2013 28.7174 19.3828 29.2643 20.4678 30.0026C20.7262 29.9172 21.0189 29.8966 21.3014 29.9411C22.4553 29.1174 23.9365 28.7926 25.2282 28.1774C26.7611 29.6574 26.5958 31.0212 25.0905 32.2892C24.1811 32.0807 23.3199 31.7526 22.5001 31.3219C22.4898 31.5407 22.4347 31.7868 22.3279 32.0568L24.002 37.8229C25.2971 35.1193 26.644 32.4362 26.9505 29.3669C26.4373 28.7106 25.8931 27.8493 25.4246 27.0973C25.2834 26.8717 25.149 26.6564 25.025 26.4582ZM13.2376 15.5959L14.0609 17.8346C14.1504 18.0944 14.178 18.32 14.1401 18.5148L14.147 18.508C15.4353 19.9264 17.0232 20.9518 18.935 21.5534C19.0314 21.3346 19.1658 21.1432 19.3621 20.9928C19.9442 20.5451 21.6528 20.5861 22.1798 21.0202C22.6207 21.3825 22.6276 22.2165 22.3003 22.6506C21.6183 23.5563 18.78 22.7941 17.8292 22.4899C16.3136 22.0046 14.9323 20.839 13.6751 19.7931L14.9668 21.8302C15.728 23.0299 16.5237 24.2536 17.5158 25.1525C18.4699 26.0173 19.6239 26.6017 21.1533 26.6051C22.8101 26.6086 24.0192 26.0002 25.0043 25.0876C26.0274 24.1374 26.8334 22.8351 27.6291 21.5363L29.7648 18.0431C30.1644 17.1408 30.309 16.5358 30.216 16.1838C30.1609 15.9718 29.9267 15.8693 29.5271 15.8488C29.441 15.8454 29.3549 15.8454 29.2653 15.8454C29.1689 15.8488 29.069 15.8556 28.9656 15.8625C28.9071 15.8659 28.852 15.8625 28.8003 15.8522C28.6108 15.8625 28.4145 15.8488 28.2147 15.8215L28.9484 12.6086C23.5163 13.4562 19.4551 9.45719 13.7164 11.8088L14.1297 15.5959C13.899 15.6061 13.6785 15.5993 13.4753 15.5685C13.396 15.5822 13.3134 15.589 13.2376 15.5959Z" fill="#C3C3C3"/>
</g>
<defs>
<clipPath id="clip0_459_119">
<rect width="42" height="42" fill="white"/>
</clipPath>
</defs>
</svg>
